<?xml version="1.0" encoding="UTF-8"?>
<svg width="141px" height="40px" viewBox="0 0 141 40" version="1.1" xmlns="http://www.w3.org/2000/svg" xmlns:xlink="http://www.w3.org/1999/xlink">
    <!-- Generator: Sketch 52.2 (67145) - http://www.bohemiancoding.com/sketch -->
    <title>text_1</title>
    <desc>Created with Sketch.</desc>
    <g id="Page-1" stroke="none" stroke-width="1" fill="none" fill-rule="evenodd">
        <g id="text_1" fill="#000000">
            <g id="Group" transform="translate(70.600000, 20.000000) scale(-1, 1) rotate(-180.000000) translate(-70.600000, -20.000000) translate(0.200000, 0.600000)">
                <g id="DejaVuSans-70-link" fill-rule="nonzero">
                    <path d="M3.64375,11.68125 L3.64375,0.08125 L0.03125,0.08125 L0.03125,30.275 L3.64375,30.275 L3.64375,26.95625 C4.40208333,28.25625 5.35625,29.2208333 6.50625,29.85 C7.66041667,30.4833333 9.0375,30.8 10.6375,30.8 C13.2958333,30.8 15.4541667,29.7458333 17.1125,27.6375 C18.775,25.5291667 19.60625,22.75625 19.60625,19.31875 C19.60625,15.88125 18.775,13.10625 17.1125,10.99375 C15.4541667,8.88541667 13.2958333,7.83125 10.6375,7.83125 C9.0375,7.83125 7.66041667,8.14791667 6.50625,8.78125 C5.35625,9.41458333 4.40208333,10.38125 3.64375,11.68125 M15.875,19.31875 C15.875,21.9604167 15.33125,24.0333333 14.24375,25.5375 C13.15625,27.0416667 11.6625,27.79375 9.7625,27.79375 C7.85833333,27.79375 6.3625,27.0416667 5.275,25.5375 C4.1875,24.0333333 3.64375,21.9604167 3.64375,19.31875 C3.64375,16.6770833 4.1875,14.6041667 5.275,13.1 C6.3625,11.5958333 7.85833333,10.84375 9.7625,10.84375 C11.6625,10.84375 13.15625,11.5958333 14.24375,13.1 C15.33125,14.6041667 15.875,16.6770833 15.875,19.31875" id="DejaVuSans-70"></path>
                </g>
                <g id="DejaVuSans-61-link" transform="translate(24.190625, 7.600000)" fill-rule="nonzero">
                    <path d="M11.3125,11.79375 C8.40833333,11.79375 6.39583333,11.4625 5.275,10.8 C4.15416667,10.1375 3.59375,9.00416667 3.59375,7.4 C3.59375,6.125 4.01458333,5.1125 4.85625,4.3625 C5.69791667,3.61666667 6.83958333,3.24375 8.28125,3.24375 C10.2770833,3.24375 11.8770833,3.95 13.08125,5.3625 C14.2854167,6.775 14.8875,8.65208333 14.8875,10.99375 L14.8875,11.79375 L11.3125,11.79375 Z M18.48125,13.28125 L18.48125,0.8 L14.8875,0.8 L14.8875,4.11875 C14.0666667,2.79375 13.04375,1.81458333 11.81875,1.18125 C10.59375,0.547916667 9.09583333,0.23125 7.325,0.23125 C5.0875,0.23125 3.30625,0.860416667 1.98125,2.11875 C0.660416667,3.37708333 0,5.06041667 0,7.16875 C0,9.62708333 0.822916667,11.48125 2.46875,12.73125 C4.11875,13.98125 6.57708333,14.60625 9.84375,14.60625 L14.8875,14.60625 L14.8875,14.9625 C14.8875,16.6166667 14.34375,17.8958333 13.25625,18.8 C12.16875,19.7041667 10.6416667,20.15625 8.675,20.15625 C7.425,20.15625 6.20625,20.00625 5.01875,19.70625 C3.83541667,19.40625 2.69791667,18.95625 1.60625,18.35625 L1.60625,21.68125 C2.91875,22.1895833 4.19375,22.56875 5.43125,22.81875 C6.66875,23.0729167 7.87291667,23.2 9.04375,23.2 C12.2104167,23.2 14.575,22.3791667 16.1375,20.7375 C17.7,19.1 18.48125,16.6145833 18.48125,13.28125 Z" id="DejaVuSans-61"></path>
                </g>
                <g id="DejaVuSans-6e-link" transform="translate(49.902344, 8.400000)">
                    <path d="M18.35625,13.20625 L18.35625,0 L14.7625,0 L14.7625,13.0875 C14.7625,15.1583333 14.3583333,16.70625 13.55,17.73125 C12.7416667,18.7604167 11.53125,19.275 9.91875,19.275 C7.97708333,19.275 6.44583333,18.65625 5.325,17.41875 C4.20416667,16.1854167 3.64375,14.5 3.64375,12.3625 L3.64375,0 L0.03125,0 L0.03125,21.875 L3.64375,21.875 L3.64375,18.475 C4.50625,19.7916667 5.51875,20.775 6.68125,21.425 C7.84791667,22.075 9.19375,22.4 10.71875,22.4 C13.23125,22.4 15.13125,21.6229167 16.41875,20.06875 C17.7104167,18.5145833 18.35625,16.2270833 18.35625,13.20625" id="DejaVuSans-6e"></path>
                </g>
                <g id="DejaVuSans-64-link" transform="translate(73.653906, 7.600000)" fill-rule="nonzero">
                    <path d="M16.1625,19.35625 L16.1625,31.19375 L19.75625,31.19375 L19.75625,0.8 L16.1625,0.8 L16.1625,4.08125 C15.4083333,2.78125 14.4541667,1.81458333 13.3,1.18125 C12.15,0.547916667 10.7666667,0.23125 9.15,0.23125 C6.50833333,0.23125 4.35625,1.28541667 2.69375,3.39375 C1.03541667,5.50625 0.20625,8.28125 0.20625,11.71875 C0.20625,15.15625 1.03541667,17.9291667 2.69375,20.0375 C4.35625,22.1458333 6.50833333,23.2 9.15,23.2 C10.7666667,23.2 12.15,22.8833333 13.3,22.25 C14.4541667,21.6208333 15.4083333,20.65625 16.1625,19.35625 M3.91875,11.71875 C3.91875,9.07708333 4.4625,7.00416667 5.55,5.5 C6.6375,3.99583333 8.13125,3.24375 10.03125,3.24375 C11.93125,3.24375 13.4270833,3.99583333 14.51875,5.5 C15.6145833,7.00416667 16.1625,9.07708333 16.1625,11.71875 C16.1625,14.3604167 15.6145833,16.4333333 14.51875,17.9375 C13.4270833,19.4416667 11.93125,20.19375 10.03125,20.19375 C8.13125,20.19375 6.6375,19.4416667 5.55,17.9375 C4.4625,16.4333333 3.91875,14.3604167 3.91875,11.71875" id="DejaVuSans-64"></path>
                </g>
                <g id="DejaVuSans-61-link" transform="translate(99.444531, 7.600000)" fill-rule="nonzero">
                    <path d="M11.3125,11.79375 C8.40833333,11.79375 6.39583333,11.4625 5.275,10.8 C4.15416667,10.1375 3.59375,9.00416667 3.59375,7.4 C3.59375,6.125 4.01458333,5.1125 4.85625,4.3625 C5.69791667,3.61666667 6.83958333,3.24375 8.28125,3.24375 C10.2770833,3.24375 11.8770833,3.95 13.08125,5.3625 C14.2854167,6.775 14.8875,8.65208333 14.8875,10.99375 L14.8875,11.79375 L11.3125,11.79375 Z M18.48125,13.28125 L18.48125,0.8 L14.8875,0.8 L14.8875,4.11875 C14.0666667,2.79375 13.04375,1.81458333 11.81875,1.18125 C10.59375,0.547916667 9.09583333,0.23125 7.325,0.23125 C5.0875,0.23125 3.30625,0.860416667 1.98125,2.11875 C0.660416667,3.37708333 0,5.06041667 0,7.16875 C0,9.62708333 0.822916667,11.48125 2.46875,12.73125 C4.11875,13.98125 6.57708333,14.60625 9.84375,14.60625 L14.8875,14.60625 L14.8875,14.9625 C14.8875,16.6166667 14.34375,17.8958333 13.25625,18.8 C12.16875,19.7041667 10.6416667,20.15625 8.675,20.15625 C7.425,20.15625 6.20625,20.00625 5.01875,19.70625 C3.83541667,19.40625 2.69791667,18.95625 1.60625,18.35625 L1.60625,21.68125 C2.91875,22.1895833 4.19375,22.56875 5.43125,22.81875 C6.66875,23.0729167 7.87291667,23.2 9.04375,23.2 C12.2104167,23.2 14.575,22.3791667 16.1375,20.7375 C17.7,19.1 18.48125,16.6145833 18.48125,13.28125 Z" id="DejaVuSans-61"></path>
                </g>
                <g id="DejaVuSans-73-link" transform="translate(123.556250, 7.600000)">
                    <path d="M15.7125,22.03125 L15.7125,18.63125 C14.7,19.1520833 13.6458333,19.5416667 12.55,19.8 C11.4583333,20.0625 10.325,20.19375 9.15,20.19375 C7.36666667,20.19375 6.02916667,19.9208333 5.1375,19.375 C4.24583333,18.8291667 3.8,18.0083333 3.8,16.9125 C3.8,16.0791667 4.11875,15.425 4.75625,14.95 C5.39375,14.475 6.67708333,14.0229167 8.60625,13.59375 L9.8375,13.31875 C12.3875,12.7729167 14.2,12.0020833 15.275,11.00625 C16.35,10.0104167 16.8875,8.62083333 16.8875,6.8375 C16.8875,4.80416667 16.0833333,3.19375 14.475,2.00625 C12.8666667,0.822916667 10.65625,0.23125 7.84375,0.23125 C6.67291667,0.23125 5.45208333,0.345833333 4.18125,0.575 C2.91041667,0.804166667 1.57291667,1.14583333 0.16875,1.6 L0.16875,5.3125 C1.49791667,4.62083333 2.80625,4.10208333 4.09375,3.75625 C5.38125,3.41458333 6.65833333,3.24375 7.925,3.24375 C9.61666667,3.24375 10.9166667,3.53333333 11.825,4.1125 C12.7375,4.69166667 13.19375,5.50833333 13.19375,6.5625 C13.19375,7.5375 12.8645833,8.28541667 12.20625,8.80625 C11.5520833,9.32708333 10.1104167,9.82916667 7.88125,10.3125 L6.63125,10.60625 C4.40625,11.0729167 2.79791667,11.7916667 1.80625,12.7625 C0.81875,13.7333333 0.325,15.0645833 0.325,16.75625 C0.325,18.8145833 1.05416667,20.4020833 2.5125,21.51875 C3.97083333,22.6395833 6.04166667,23.2 8.725,23.2 C10.05,23.2 11.2979167,23.1020833 12.46875,22.90625 C13.64375,22.7145833 14.725,22.4229167 15.7125,22.03125" id="DejaVuSans-73"></path>
                </g>
            </g>
        </g>
    </g>
</svg>