<?xml version="1.0" encoding="utf-8" standalone="no"?>
<!DOCTYPE svg PUBLIC "-//W3C//DTD SVG 1.1//EN"
  "http://www.w3.org/Graphics/SVG/1.1/DTD/svg11.dtd">
<!-- Created with matplotlib (http://matplotlib.org/) -->
<svg height="288pt" version="1.1" viewBox="0 0 432 288" width="432pt" xmlns="http://www.w3.org/2000/svg" xmlns:xlink="http://www.w3.org/1999/xlink">
 <defs>
  <style type="text/css">
*{stroke-linecap:butt;stroke-linejoin:round;}
  </style>
 </defs>
 <g id="figure_1">
  <g id="patch_1">
   <path d="M 0 288 
L 432 288 
L 432 0 
L 0 0 
z
" style="fill:#ffffff;"/>
  </g>
  <g id="axes_1">
   <g id="patch_2">
    <path d="M 54 252 
L 388.8 252 
L 388.8 34.56 
L 54 34.56 
z
" style="fill:#ffffff;"/>
   </g>
   <g id="matplotlib.axis_1">
    <g id="xtick_1">
     <g id="line2d_1">
      <defs>
       <path d="M 0 0 
L 0 3.5 
" id="m446a5bf0e2" style="stroke:#000000;stroke-width:0.8;"/>
      </defs>
      <g>
       <use style="stroke:#000000;stroke-width:0.8;" x="54" xlink:href="#m446a5bf0e2" y="252"/>
      </g>
     </g>
     <g id="text_1">
      <!-- 1990 -->
      <defs>
       <path d="M 12.40625 8.296875 
L 28.515625 8.296875 
L 28.515625 63.921875 
L 10.984375 60.40625 
L 10.984375 69.390625 
L 28.421875 72.90625 
L 38.28125 72.90625 
L 38.28125 8.296875 
L 54.390625 8.296875 
L 54.390625 0 
L 12.40625 0 
z
" id="DejaVuSans-31"/>
       <path d="M 10.984375 1.515625 
L 10.984375 10.5 
Q 14.703125 8.734375 18.5 7.8125 
Q 22.3125 6.890625 25.984375 6.890625 
Q 35.75 6.890625 40.890625 13.453125 
Q 46.046875 20.015625 46.78125 33.40625 
Q 43.953125 29.203125 39.59375 26.953125 
Q 35.25 24.703125 29.984375 24.703125 
Q 19.046875 24.703125 12.671875 31.3125 
Q 6.296875 37.9375 6.296875 49.421875 
Q 6.296875 60.640625 12.9375 67.421875 
Q 19.578125 74.21875 30.609375 74.21875 
Q 43.265625 74.21875 49.921875 64.515625 
Q 56.59375 54.828125 56.59375 36.375 
Q 56.59375 19.140625 48.40625 8.859375 
Q 40.234375 -1.421875 26.421875 -1.421875 
Q 22.703125 -1.421875 18.890625 -0.6875 
Q 15.09375 0.046875 10.984375 1.515625 
z
M 30.609375 32.421875 
Q 37.25 32.421875 41.125 36.953125 
Q 45.015625 41.5 45.015625 49.421875 
Q 45.015625 57.28125 41.125 61.84375 
Q 37.25 66.40625 30.609375 66.40625 
Q 23.96875 66.40625 20.09375 61.84375 
Q 16.21875 57.28125 16.21875 49.421875 
Q 16.21875 41.5 20.09375 36.953125 
Q 23.96875 32.421875 30.609375 32.421875 
z
" id="DejaVuSans-39"/>
       <path d="M 31.78125 66.40625 
Q 24.171875 66.40625 20.328125 58.90625 
Q 16.5 51.421875 16.5 36.375 
Q 16.5 21.390625 20.328125 13.890625 
Q 24.171875 6.390625 31.78125 6.390625 
Q 39.453125 6.390625 43.28125 13.890625 
Q 47.125 21.390625 47.125 36.375 
Q 47.125 51.421875 43.28125 58.90625 
Q 39.453125 66.40625 31.78125 66.40625 
z
M 31.78125 74.21875 
Q 44.046875 74.21875 50.515625 64.515625 
Q 56.984375 54.828125 56.984375 36.375 
Q 56.984375 17.96875 50.515625 8.265625 
Q 44.046875 -1.421875 31.78125 -1.421875 
Q 19.53125 -1.421875 13.0625 8.265625 
Q 6.59375 17.96875 6.59375 36.375 
Q 6.59375 54.828125 13.0625 64.515625 
Q 19.53125 74.21875 31.78125 74.21875 
z
" id="DejaVuSans-30"/>
      </defs>
      <g transform="translate(41.275 266.598437)scale(0.1 -0.1)">
       <use xlink:href="#DejaVuSans-31"/>
       <use x="63.623047" xlink:href="#DejaVuSans-39"/>
       <use x="127.246094" xlink:href="#DejaVuSans-39"/>
       <use x="190.869141" xlink:href="#DejaVuSans-30"/>
      </g>
     </g>
    </g>
    <g id="xtick_2">
     <g id="line2d_2">
      <g>
       <use style="stroke:#000000;stroke-width:0.8;" x="102.115562" xlink:href="#m446a5bf0e2" y="252"/>
      </g>
     </g>
     <g id="text_2">
      <!-- 1994 -->
      <defs>
       <path d="M 37.796875 64.3125 
L 12.890625 25.390625 
L 37.796875 25.390625 
z
M 35.203125 72.90625 
L 47.609375 72.90625 
L 47.609375 25.390625 
L 58.015625 25.390625 
L 58.015625 17.1875 
L 47.609375 17.1875 
L 47.609375 0 
L 37.796875 0 
L 37.796875 17.1875 
L 4.890625 17.1875 
L 4.890625 26.703125 
z
" id="DejaVuSans-34"/>
      </defs>
      <g transform="translate(89.390562 266.598437)scale(0.1 -0.1)">
       <use xlink:href="#DejaVuSans-31"/>
       <use x="63.623047" xlink:href="#DejaVuSans-39"/>
       <use x="127.246094" xlink:href="#DejaVuSans-39"/>
       <use x="190.869141" xlink:href="#DejaVuSans-34"/>
      </g>
     </g>
    </g>
    <g id="xtick_3">
     <g id="line2d_3">
      <g>
       <use style="stroke:#000000;stroke-width:0.8;" x="150.231123" xlink:href="#m446a5bf0e2" y="252"/>
      </g>
     </g>
     <g id="text_3">
      <!-- 1998 -->
      <defs>
       <path d="M 31.78125 34.625 
Q 24.75 34.625 20.71875 30.859375 
Q 16.703125 27.09375 16.703125 20.515625 
Q 16.703125 13.921875 20.71875 10.15625 
Q 24.75 6.390625 31.78125 6.390625 
Q 38.8125 6.390625 42.859375 10.171875 
Q 46.921875 13.96875 46.921875 20.515625 
Q 46.921875 27.09375 42.890625 30.859375 
Q 38.875 34.625 31.78125 34.625 
z
M 21.921875 38.8125 
Q 15.578125 40.375 12.03125 44.71875 
Q 8.5 49.078125 8.5 55.328125 
Q 8.5 64.0625 14.71875 69.140625 
Q 20.953125 74.21875 31.78125 74.21875 
Q 42.671875 74.21875 48.875 69.140625 
Q 55.078125 64.0625 55.078125 55.328125 
Q 55.078125 49.078125 51.53125 44.71875 
Q 48 40.375 41.703125 38.8125 
Q 48.828125 37.15625 52.796875 32.3125 
Q 56.78125 27.484375 56.78125 20.515625 
Q 56.78125 9.90625 50.3125 4.234375 
Q 43.84375 -1.421875 31.78125 -1.421875 
Q 19.734375 -1.421875 13.25 4.234375 
Q 6.78125 9.90625 6.78125 20.515625 
Q 6.78125 27.484375 10.78125 32.3125 
Q 14.796875 37.15625 21.921875 38.8125 
z
M 18.3125 54.390625 
Q 18.3125 48.734375 21.84375 45.5625 
Q 25.390625 42.390625 31.78125 42.390625 
Q 38.140625 42.390625 41.71875 45.5625 
Q 45.3125 48.734375 45.3125 54.390625 
Q 45.3125 60.0625 41.71875 63.234375 
Q 38.140625 66.40625 31.78125 66.40625 
Q 25.390625 66.40625 21.84375 63.234375 
Q 18.3125 60.0625 18.3125 54.390625 
z
" id="DejaVuSans-38"/>
      </defs>
      <g transform="translate(137.506123 266.598437)scale(0.1 -0.1)">
       <use xlink:href="#DejaVuSans-31"/>
       <use x="63.623047" xlink:href="#DejaVuSans-39"/>
       <use x="127.246094" xlink:href="#DejaVuSans-39"/>
       <use x="190.869141" xlink:href="#DejaVuSans-38"/>
      </g>
     </g>
    </g>
    <g id="xtick_4">
     <g id="line2d_4">
      <g>
       <use style="stroke:#000000;stroke-width:0.8;" x="198.346685" xlink:href="#m446a5bf0e2" y="252"/>
      </g>
     </g>
     <g id="text_4">
      <!-- 2002 -->
      <defs>
       <path d="M 19.1875 8.296875 
L 53.609375 8.296875 
L 53.609375 0 
L 7.328125 0 
L 7.328125 8.296875 
Q 12.9375 14.109375 22.625 23.890625 
Q 32.328125 33.6875 34.8125 36.53125 
Q 39.546875 41.84375 41.421875 45.53125 
Q 43.3125 49.21875 43.3125 52.78125 
Q 43.3125 58.59375 39.234375 62.25 
Q 35.15625 65.921875 28.609375 65.921875 
Q 23.96875 65.921875 18.8125 64.3125 
Q 13.671875 62.703125 7.8125 59.421875 
L 7.8125 69.390625 
Q 13.765625 71.78125 18.9375 73 
Q 24.125 74.21875 28.421875 74.21875 
Q 39.75 74.21875 46.484375 68.546875 
Q 53.21875 62.890625 53.21875 53.421875 
Q 53.21875 48.921875 51.53125 44.890625 
Q 49.859375 40.875 45.40625 35.40625 
Q 44.1875 33.984375 37.640625 27.21875 
Q 31.109375 20.453125 19.1875 8.296875 
z
" id="DejaVuSans-32"/>
      </defs>
      <g transform="translate(185.621685 266.598437)scale(0.1 -0.1)">
       <use xlink:href="#DejaVuSans-32"/>
       <use x="63.623047" xlink:href="#DejaVuSans-30"/>
       <use x="127.246094" xlink:href="#DejaVuSans-30"/>
       <use x="190.869141" xlink:href="#DejaVuSans-32"/>
      </g>
     </g>
    </g>
    <g id="xtick_5">
     <g id="line2d_5">
      <g>
       <use style="stroke:#000000;stroke-width:0.8;" x="246.462247" xlink:href="#m446a5bf0e2" y="252"/>
      </g>
     </g>
     <g id="text_5">
      <!-- 2006 -->
      <defs>
       <path d="M 33.015625 40.375 
Q 26.375 40.375 22.484375 35.828125 
Q 18.609375 31.296875 18.609375 23.390625 
Q 18.609375 15.53125 22.484375 10.953125 
Q 26.375 6.390625 33.015625 6.390625 
Q 39.65625 6.390625 43.53125 10.953125 
Q 47.40625 15.53125 47.40625 23.390625 
Q 47.40625 31.296875 43.53125 35.828125 
Q 39.65625 40.375 33.015625 40.375 
z
M 52.59375 71.296875 
L 52.59375 62.3125 
Q 48.875 64.0625 45.09375 64.984375 
Q 41.3125 65.921875 37.59375 65.921875 
Q 27.828125 65.921875 22.671875 59.328125 
Q 17.53125 52.734375 16.796875 39.40625 
Q 19.671875 43.65625 24.015625 45.921875 
Q 28.375 48.1875 33.59375 48.1875 
Q 44.578125 48.1875 50.953125 41.515625 
Q 57.328125 34.859375 57.328125 23.390625 
Q 57.328125 12.15625 50.6875 5.359375 
Q 44.046875 -1.421875 33.015625 -1.421875 
Q 20.359375 -1.421875 13.671875 8.265625 
Q 6.984375 17.96875 6.984375 36.375 
Q 6.984375 53.65625 15.1875 63.9375 
Q 23.390625 74.21875 37.203125 74.21875 
Q 40.921875 74.21875 44.703125 73.484375 
Q 48.484375 72.75 52.59375 71.296875 
z
" id="DejaVuSans-36"/>
      </defs>
      <g transform="translate(233.737247 266.598437)scale(0.1 -0.1)">
       <use xlink:href="#DejaVuSans-32"/>
       <use x="63.623047" xlink:href="#DejaVuSans-30"/>
       <use x="127.246094" xlink:href="#DejaVuSans-30"/>
       <use x="190.869141" xlink:href="#DejaVuSans-36"/>
      </g>
     </g>
    </g>
    <g id="xtick_6">
     <g id="line2d_6">
      <g>
       <use style="stroke:#000000;stroke-width:0.8;" x="294.577808" xlink:href="#m446a5bf0e2" y="252"/>
      </g>
     </g>
     <g id="text_6">
      <!-- 2010 -->
      <g transform="translate(281.852808 266.598437)scale(0.1 -0.1)">
       <use xlink:href="#DejaVuSans-32"/>
       <use x="63.623047" xlink:href="#DejaVuSans-30"/>
       <use x="127.246094" xlink:href="#DejaVuSans-31"/>
       <use x="190.869141" xlink:href="#DejaVuSans-30"/>
      </g>
     </g>
    </g>
    <g id="xtick_7">
     <g id="line2d_7">
      <g>
       <use style="stroke:#000000;stroke-width:0.8;" x="342.69337" xlink:href="#m446a5bf0e2" y="252"/>
      </g>
     </g>
     <g id="text_7">
      <!-- 2014 -->
      <g transform="translate(329.96837 266.598437)scale(0.1 -0.1)">
       <use xlink:href="#DejaVuSans-32"/>
       <use x="63.623047" xlink:href="#DejaVuSans-30"/>
       <use x="127.246094" xlink:href="#DejaVuSans-31"/>
       <use x="190.869141" xlink:href="#DejaVuSans-34"/>
      </g>
     </g>
    </g>
    <g id="text_8">
     <!-- Date -->
     <defs>
      <path d="M 19.671875 64.796875 
L 19.671875 8.109375 
L 31.59375 8.109375 
Q 46.6875 8.109375 53.6875 14.9375 
Q 60.6875 21.78125 60.6875 36.53125 
Q 60.6875 51.171875 53.6875 57.984375 
Q 46.6875 64.796875 31.59375 64.796875 
z
M 9.8125 72.90625 
L 30.078125 72.90625 
Q 51.265625 72.90625 61.171875 64.09375 
Q 71.09375 55.28125 71.09375 36.53125 
Q 71.09375 17.671875 61.125 8.828125 
Q 51.171875 0 30.078125 0 
L 9.8125 0 
z
" id="DejaVuSans-44"/>
      <path d="M 34.28125 27.484375 
Q 23.390625 27.484375 19.1875 25 
Q 14.984375 22.515625 14.984375 16.5 
Q 14.984375 11.71875 18.140625 8.90625 
Q 21.296875 6.109375 26.703125 6.109375 
Q 34.1875 6.109375 38.703125 11.40625 
Q 43.21875 16.703125 43.21875 25.484375 
L 43.21875 27.484375 
z
M 52.203125 31.203125 
L 52.203125 0 
L 43.21875 0 
L 43.21875 8.296875 
Q 40.140625 3.328125 35.546875 0.953125 
Q 30.953125 -1.421875 24.3125 -1.421875 
Q 15.921875 -1.421875 10.953125 3.296875 
Q 6 8.015625 6 15.921875 
Q 6 25.140625 12.171875 29.828125 
Q 18.359375 34.515625 30.609375 34.515625 
L 43.21875 34.515625 
L 43.21875 35.40625 
Q 43.21875 41.609375 39.140625 45 
Q 35.0625 48.390625 27.6875 48.390625 
Q 23 48.390625 18.546875 47.265625 
Q 14.109375 46.140625 10.015625 43.890625 
L 10.015625 52.203125 
Q 14.9375 54.109375 19.578125 55.046875 
Q 24.21875 56 28.609375 56 
Q 40.484375 56 46.34375 49.84375 
Q 52.203125 43.703125 52.203125 31.203125 
z
" id="DejaVuSans-61"/>
      <path d="M 18.3125 70.21875 
L 18.3125 54.6875 
L 36.8125 54.6875 
L 36.8125 47.703125 
L 18.3125 47.703125 
L 18.3125 18.015625 
Q 18.3125 11.328125 20.140625 9.421875 
Q 21.96875 7.515625 27.59375 7.515625 
L 36.8125 7.515625 
L 36.8125 0 
L 27.59375 0 
Q 17.1875 0 13.234375 3.875 
Q 9.28125 7.765625 9.28125 18.015625 
L 9.28125 47.703125 
L 2.6875 47.703125 
L 2.6875 54.6875 
L 9.28125 54.6875 
L 9.28125 70.21875 
z
" id="DejaVuSans-74"/>
      <path d="M 56.203125 29.59375 
L 56.203125 25.203125 
L 14.890625 25.203125 
Q 15.484375 15.921875 20.484375 11.0625 
Q 25.484375 6.203125 34.421875 6.203125 
Q 39.59375 6.203125 44.453125 7.46875 
Q 49.3125 8.734375 54.109375 11.28125 
L 54.109375 2.78125 
Q 49.265625 0.734375 44.1875 -0.34375 
Q 39.109375 -1.421875 33.890625 -1.421875 
Q 20.796875 -1.421875 13.15625 6.1875 
Q 5.515625 13.8125 5.515625 26.8125 
Q 5.515625 40.234375 12.765625 48.109375 
Q 20.015625 56 32.328125 56 
Q 43.359375 56 49.78125 48.890625 
Q 56.203125 41.796875 56.203125 29.59375 
z
M 47.21875 32.234375 
Q 47.125 39.59375 43.09375 43.984375 
Q 39.0625 48.390625 32.421875 48.390625 
Q 24.90625 48.390625 20.390625 44.140625 
Q 15.875 39.890625 15.1875 32.171875 
z
" id="DejaVuSans-65"/>
     </defs>
     <g transform="translate(195.108281 289.394688)scale(0.22 -0.22)">
      <use xlink:href="#DejaVuSans-44"/>
      <use x="77.001953" xlink:href="#DejaVuSans-61"/>
      <use x="138.28125" xlink:href="#DejaVuSans-74"/>
      <use x="177.490234" xlink:href="#DejaVuSans-65"/>
     </g>
    </g>
   </g>
   <g id="matplotlib.axis_2">
    <g id="ytick_1">
     <g id="line2d_8">
      <defs>
       <path d="M 0 0 
L -3.5 0 
" id="m210771c64e" style="stroke:#000000;stroke-width:0.8;"/>
      </defs>
      <g>
       <use style="stroke:#000000;stroke-width:0.8;" x="54" xlink:href="#m210771c64e" y="242.574632"/>
      </g>
     </g>
     <g id="text_9">
      <!-- %-4.00 -->
      <defs>
       <path d="M 72.703125 32.078125 
Q 68.453125 32.078125 66.03125 28.46875 
Q 63.625 24.859375 63.625 18.40625 
Q 63.625 12.0625 66.03125 8.421875 
Q 68.453125 4.78125 72.703125 4.78125 
Q 76.859375 4.78125 79.265625 8.421875 
Q 81.6875 12.0625 81.6875 18.40625 
Q 81.6875 24.8125 79.265625 28.4375 
Q 76.859375 32.078125 72.703125 32.078125 
z
M 72.703125 38.28125 
Q 80.421875 38.28125 84.953125 32.90625 
Q 89.5 27.546875 89.5 18.40625 
Q 89.5 9.28125 84.9375 3.921875 
Q 80.375 -1.421875 72.703125 -1.421875 
Q 64.890625 -1.421875 60.34375 3.921875 
Q 55.8125 9.28125 55.8125 18.40625 
Q 55.8125 27.59375 60.375 32.9375 
Q 64.9375 38.28125 72.703125 38.28125 
z
M 22.3125 68.015625 
Q 18.109375 68.015625 15.6875 64.375 
Q 13.28125 60.75 13.28125 54.390625 
Q 13.28125 47.953125 15.671875 44.328125 
Q 18.0625 40.71875 22.3125 40.71875 
Q 26.5625 40.71875 28.96875 44.328125 
Q 31.390625 47.953125 31.390625 54.390625 
Q 31.390625 60.6875 28.953125 64.34375 
Q 26.515625 68.015625 22.3125 68.015625 
z
M 66.40625 74.21875 
L 74.21875 74.21875 
L 28.609375 -1.421875 
L 20.796875 -1.421875 
z
M 22.3125 74.21875 
Q 30.03125 74.21875 34.609375 68.875 
Q 39.203125 63.53125 39.203125 54.390625 
Q 39.203125 45.171875 34.640625 39.84375 
Q 30.078125 34.515625 22.3125 34.515625 
Q 14.546875 34.515625 10.03125 39.859375 
Q 5.515625 45.21875 5.515625 54.390625 
Q 5.515625 63.484375 10.046875 68.84375 
Q 14.59375 74.21875 22.3125 74.21875 
z
" id="DejaVuSans-25"/>
       <path d="M 4.890625 31.390625 
L 31.203125 31.390625 
L 31.203125 23.390625 
L 4.890625 23.390625 
z
" id="DejaVuSans-2d"/>
       <path d="M 10.6875 12.40625 
L 21 12.40625 
L 21 0 
L 10.6875 0 
z
" id="DejaVuSans-2e"/>
      </defs>
      <g transform="translate(11.625 246.373851)scale(0.1 -0.1)">
       <use xlink:href="#DejaVuSans-25"/>
       <use x="95.019531" xlink:href="#DejaVuSans-2d"/>
       <use x="131.103516" xlink:href="#DejaVuSans-34"/>
       <use x="194.726562" xlink:href="#DejaVuSans-2e"/>
       <use x="226.513672" xlink:href="#DejaVuSans-30"/>
       <use x="290.136719" xlink:href="#DejaVuSans-30"/>
      </g>
     </g>
    </g>
    <g id="ytick_2">
     <g id="line2d_9">
      <g>
       <use style="stroke:#000000;stroke-width:0.8;" x="54" xlink:href="#m210771c64e" y="213.87043"/>
      </g>
     </g>
     <g id="text_10">
      <!-- %-2.00 -->
      <g transform="translate(11.625 217.669649)scale(0.1 -0.1)">
       <use xlink:href="#DejaVuSans-25"/>
       <use x="95.019531" xlink:href="#DejaVuSans-2d"/>
       <use x="131.103516" xlink:href="#DejaVuSans-32"/>
       <use x="194.726562" xlink:href="#DejaVuSans-2e"/>
       <use x="226.513672" xlink:href="#DejaVuSans-30"/>
       <use x="290.136719" xlink:href="#DejaVuSans-30"/>
      </g>
     </g>
    </g>
    <g id="ytick_3">
     <g id="line2d_10">
      <g>
       <use style="stroke:#000000;stroke-width:0.8;" x="54" xlink:href="#m210771c64e" y="185.166229"/>
      </g>
     </g>
     <g id="text_11">
      <!-- %0.00 -->
      <g transform="translate(15.232812 188.965447)scale(0.1 -0.1)">
       <use xlink:href="#DejaVuSans-25"/>
       <use x="95.019531" xlink:href="#DejaVuSans-30"/>
       <use x="158.642578" xlink:href="#DejaVuSans-2e"/>
       <use x="190.429688" xlink:href="#DejaVuSans-30"/>
       <use x="254.052734" xlink:href="#DejaVuSans-30"/>
      </g>
     </g>
    </g>
    <g id="ytick_4">
     <g id="line2d_11">
      <g>
       <use style="stroke:#000000;stroke-width:0.8;" x="54" xlink:href="#m210771c64e" y="156.462027"/>
      </g>
     </g>
     <g id="text_12">
      <!-- %2.00 -->
      <g transform="translate(15.232812 160.261246)scale(0.1 -0.1)">
       <use xlink:href="#DejaVuSans-25"/>
       <use x="95.019531" xlink:href="#DejaVuSans-32"/>
       <use x="158.642578" xlink:href="#DejaVuSans-2e"/>
       <use x="190.429688" xlink:href="#DejaVuSans-30"/>
       <use x="254.052734" xlink:href="#DejaVuSans-30"/>
      </g>
     </g>
    </g>
    <g id="ytick_5">
     <g id="line2d_12">
      <g>
       <use style="stroke:#000000;stroke-width:0.8;" x="54" xlink:href="#m210771c64e" y="127.757825"/>
      </g>
     </g>
     <g id="text_13">
      <!-- %4.00 -->
      <g transform="translate(15.232812 131.557044)scale(0.1 -0.1)">
       <use xlink:href="#DejaVuSans-25"/>
       <use x="95.019531" xlink:href="#DejaVuSans-34"/>
       <use x="158.642578" xlink:href="#DejaVuSans-2e"/>
       <use x="190.429688" xlink:href="#DejaVuSans-30"/>
       <use x="254.052734" xlink:href="#DejaVuSans-30"/>
      </g>
     </g>
    </g>
    <g id="ytick_6">
     <g id="line2d_13">
      <g>
       <use style="stroke:#000000;stroke-width:0.8;" x="54" xlink:href="#m210771c64e" y="99.053624"/>
      </g>
     </g>
     <g id="text_14">
      <!-- %6.00 -->
      <g transform="translate(15.232812 102.852842)scale(0.1 -0.1)">
       <use xlink:href="#DejaVuSans-25"/>
       <use x="95.019531" xlink:href="#DejaVuSans-36"/>
       <use x="158.642578" xlink:href="#DejaVuSans-2e"/>
       <use x="190.429688" xlink:href="#DejaVuSans-30"/>
       <use x="254.052734" xlink:href="#DejaVuSans-30"/>
      </g>
     </g>
    </g>
    <g id="ytick_7">
     <g id="line2d_14">
      <g>
       <use style="stroke:#000000;stroke-width:0.8;" x="54" xlink:href="#m210771c64e" y="70.349422"/>
      </g>
     </g>
     <g id="text_15">
      <!-- %8.00 -->
      <g transform="translate(15.232812 74.148641)scale(0.1 -0.1)">
       <use xlink:href="#DejaVuSans-25"/>
       <use x="95.019531" xlink:href="#DejaVuSans-38"/>
       <use x="158.642578" xlink:href="#DejaVuSans-2e"/>
       <use x="190.429688" xlink:href="#DejaVuSans-30"/>
       <use x="254.052734" xlink:href="#DejaVuSans-30"/>
      </g>
     </g>
    </g>
    <g id="ytick_8">
     <g id="line2d_15">
      <g>
       <use style="stroke:#000000;stroke-width:0.8;" x="54" xlink:href="#m210771c64e" y="41.64522"/>
      </g>
     </g>
     <g id="text_16">
      <!-- %10.00 -->
      <g transform="translate(8.870312 45.444439)scale(0.1 -0.1)">
       <use xlink:href="#DejaVuSans-25"/>
       <use x="95.019531" xlink:href="#DejaVuSans-31"/>
       <use x="158.642578" xlink:href="#DejaVuSans-30"/>
       <use x="222.265625" xlink:href="#DejaVuSans-2e"/>
       <use x="254.052734" xlink:href="#DejaVuSans-30"/>
       <use x="317.675781" xlink:href="#DejaVuSans-30"/>
      </g>
     </g>
    </g>
    <g id="text_17">
     <!-- Total Return -->
     <defs>
      <path d="M -0.296875 72.90625 
L 61.375 72.90625 
L 61.375 64.59375 
L 35.5 64.59375 
L 35.5 0 
L 25.59375 0 
L 25.59375 64.59375 
L -0.296875 64.59375 
z
" id="DejaVuSans-54"/>
      <path d="M 30.609375 48.390625 
Q 23.390625 48.390625 19.1875 42.75 
Q 14.984375 37.109375 14.984375 27.296875 
Q 14.984375 17.484375 19.15625 11.84375 
Q 23.34375 6.203125 30.609375 6.203125 
Q 37.796875 6.203125 41.984375 11.859375 
Q 46.1875 17.53125 46.1875 27.296875 
Q 46.1875 37.015625 41.984375 42.703125 
Q 37.796875 48.390625 30.609375 48.390625 
z
M 30.609375 56 
Q 42.328125 56 49.015625 48.375 
Q 55.71875 40.765625 55.71875 27.296875 
Q 55.71875 13.875 49.015625 6.21875 
Q 42.328125 -1.421875 30.609375 -1.421875 
Q 18.84375 -1.421875 12.171875 6.21875 
Q 5.515625 13.875 5.515625 27.296875 
Q 5.515625 40.765625 12.171875 48.375 
Q 18.84375 56 30.609375 56 
z
" id="DejaVuSans-6f"/>
      <path d="M 9.421875 75.984375 
L 18.40625 75.984375 
L 18.40625 0 
L 9.421875 0 
z
" id="DejaVuSans-6c"/>
      <path id="DejaVuSans-20"/>
      <path d="M 44.390625 34.1875 
Q 47.5625 33.109375 50.5625 29.59375 
Q 53.5625 26.078125 56.59375 19.921875 
L 66.609375 0 
L 56 0 
L 46.6875 18.703125 
Q 43.0625 26.03125 39.671875 28.421875 
Q 36.28125 30.8125 30.421875 30.8125 
L 19.671875 30.8125 
L 19.671875 0 
L 9.8125 0 
L 9.8125 72.90625 
L 32.078125 72.90625 
Q 44.578125 72.90625 50.734375 67.671875 
Q 56.890625 62.453125 56.890625 51.90625 
Q 56.890625 45.015625 53.6875 40.46875 
Q 50.484375 35.9375 44.390625 34.1875 
z
M 19.671875 64.796875 
L 19.671875 38.921875 
L 32.078125 38.921875 
Q 39.203125 38.921875 42.84375 42.21875 
Q 46.484375 45.515625 46.484375 51.90625 
Q 46.484375 58.296875 42.84375 61.546875 
Q 39.203125 64.796875 32.078125 64.796875 
z
" id="DejaVuSans-52"/>
      <path d="M 8.5 21.578125 
L 8.5 54.6875 
L 17.484375 54.6875 
L 17.484375 21.921875 
Q 17.484375 14.15625 20.5 10.265625 
Q 23.53125 6.390625 29.59375 6.390625 
Q 36.859375 6.390625 41.078125 11.03125 
Q 45.3125 15.671875 45.3125 23.6875 
L 45.3125 54.6875 
L 54.296875 54.6875 
L 54.296875 0 
L 45.3125 0 
L 45.3125 8.40625 
Q 42.046875 3.421875 37.71875 1 
Q 33.40625 -1.421875 27.6875 -1.421875 
Q 18.265625 -1.421875 13.375 4.4375 
Q 8.5 10.296875 8.5 21.578125 
z
M 31.109375 56 
z
" id="DejaVuSans-75"/>
      <path d="M 41.109375 46.296875 
Q 39.59375 47.171875 37.8125 47.578125 
Q 36.03125 48 33.890625 48 
Q 26.265625 48 22.1875 43.046875 
Q 18.109375 38.09375 18.109375 28.8125 
L 18.109375 0 
L 9.078125 0 
L 9.078125 54.6875 
L 18.109375 54.6875 
L 18.109375 46.1875 
Q 20.953125 51.171875 25.484375 53.578125 
Q 30.03125 56 36.53125 56 
Q 37.453125 56 38.578125 55.875 
Q 39.703125 55.765625 41.0625 55.515625 
z
" id="DejaVuSans-72"/>
      <path d="M 54.890625 33.015625 
L 54.890625 0 
L 45.90625 0 
L 45.90625 32.71875 
Q 45.90625 40.484375 42.875 44.328125 
Q 39.84375 48.1875 33.796875 48.1875 
Q 26.515625 48.1875 22.3125 43.546875 
Q 18.109375 38.921875 18.109375 30.90625 
L 18.109375 0 
L 9.078125 0 
L 9.078125 54.6875 
L 18.109375 54.6875 
L 18.109375 46.1875 
Q 21.34375 51.125 25.703125 53.5625 
Q 30.078125 56 35.796875 56 
Q 45.21875 56 50.046875 50.171875 
Q 54.890625 44.34375 54.890625 33.015625 
z
" id="DejaVuSans-6e"/>
     </defs>
     <g transform="translate(0.295 211.485156)rotate(-90)scale(0.22 -0.22)">
      <use xlink:href="#DejaVuSans-54"/>
      <use x="60.818359" xlink:href="#DejaVuSans-6f"/>
      <use x="122" xlink:href="#DejaVuSans-74"/>
      <use x="161.208984" xlink:href="#DejaVuSans-61"/>
      <use x="222.488281" xlink:href="#DejaVuSans-6c"/>
      <use x="250.271484" xlink:href="#DejaVuSans-20"/>
      <use x="282.058594" xlink:href="#DejaVuSans-52"/>
      <use x="351.478516" xlink:href="#DejaVuSans-65"/>
      <use x="413.001953" xlink:href="#DejaVuSans-74"/>
      <use x="452.210938" xlink:href="#DejaVuSans-75"/>
      <use x="515.589844" xlink:href="#DejaVuSans-72"/>
      <use x="556.6875" xlink:href="#DejaVuSans-6e"/>
     </g>
    </g>
   </g>
   <g id="line2d_16">
    <path clip-path="url(#p49b7eb2b39)" d="M 54 209.259915 
L 55.020933 211.519589 
L 55.943065 208.369251 
L 56.963998 207.811155 
L 57.951997 214.818316 
L 58.972929 208.372565 
L 60.981861 208.982438 
L 62.002794 210.082223 
L 62.990793 212.558241 
L 64.011725 213.562977 
L 66.020657 211.583263 
L 67.04159 213.156723 
L 67.963722 209.791068 
L 68.984655 213.747487 
L 69.972654 209.807608 
L 70.993586 216.39808 
L 71.981586 218.592611 
L 73.002518 220.454435 
L 74.023451 217.12107 
L 75.01145 221.836641 
L 76.032382 217.521725 
L 77.020382 220.974232 
L 78.041314 227.36222 
L 79.062247 222.878822 
L 80.017313 224.601564 
L 81.038245 224.626269 
L 83.047177 233.809362 
L 84.035176 230.921829 
L 85.056109 234.446496 
L 86.077041 228.889831 
L 87.06504 218.353169 
L 88.085973 214.698463 
L 89.073972 204.232058 
L 90.094905 196.550707 
L 91.115837 190.527998 
L 92.03797 182.100276 
L 93.058902 176.267649 
L 94.046901 174.119097 
L 95.067834 167.477482 
L 96.055833 154.383076 
L 97.076766 152.726602 
L 98.097698 141.400041 
L 99.085697 139.798716 
L 100.10663 128.684777 
L 101.094629 121.924111 
L 102.115562 118.058297 
L 103.136494 108.90232 
L 104.058627 103.657787 
L 105.079559 97.192796 
L 106.067559 86.964905 
L 107.088491 97.782903 
L 108.07649 105.170357 
L 109.097423 94.626157 
L 110.118355 81.90846 
L 112.127287 65.122809 
L 113.115286 55.073629 
L 114.136219 48.730803 
L 115.157151 44.443636 
L 116.079284 50.6768 
L 117.100216 50.834619 
L 118.088216 52.962454 
L 119.109148 52.826966 
L 120.097147 51.813961 
L 121.11808 53.954939 
L 122.139012 55.336839 
L 123.127012 61.768389 
L 124.147944 59.732269 
L 125.135943 65.123661 
L 126.156876 68.204006 
L 127.177808 69.456148 
L 128.132874 71.658976 
L 129.153807 68.66311 
L 130.141806 70.808784 
L 131.162739 75.643527 
L 132.150738 75.500814 
L 133.17167 77.64998 
L 134.192603 77.167943 
L 135.180602 81.321941 
L 136.201535 79.271259 
L 137.189534 82.390695 
L 138.210466 87.508465 
L 139.231399 86.365368 
L 140.153531 88.724647 
L 141.174464 89.263598 
L 142.162463 91.155606 
L 143.183396 97.18071 
L 144.171395 95.313689 
L 145.192327 99.442805 
L 146.21326 98.456292 
L 147.201259 103.171049 
L 148.222192 104.575139 
L 149.210191 104.942913 
L 150.231123 109.275005 
L 151.252056 106.697063 
L 152.174188 107.219976 
L 153.195121 109.307342 
L 154.18312 114.73949 
L 155.204053 116.316383 
L 156.192052 118.505458 
L 157.212984 115.883542 
L 158.233917 121.192488 
L 159.221916 123.586832 
L 160.242849 125.660703 
L 161.230848 125.997287 
L 162.25178 128.837936 
L 163.272713 132.133893 
L 164.194846 130.922592 
L 165.215778 130.205107 
L 166.203777 131.815282 
L 167.22471 138.27054 
L 168.212709 141.247402 
L 169.233642 137.642051 
L 170.254574 140.216101 
L 171.242573 142.008215 
L 172.263506 141.278995 
L 173.251505 143.415909 
L 174.272438 142.019916 
L 175.29337 144.346703 
L 176.248436 145.071711 
L 177.269368 141.574014 
L 178.257368 140.801554 
L 179.2783 144.755936 
L 180.266299 143.052003 
L 181.287232 142.584149 
L 182.308164 144.307421 
L 183.296164 150.234468 
L 184.317096 145.449479 
L 185.305095 145.187901 
L 186.326028 150.595131 
L 187.34696 146.196917 
L 188.269093 148.628646 
L 189.290026 144.548194 
L 190.278025 146.025543 
L 191.298957 149.700248 
L 192.286957 142.914158 
L 193.307889 143.17206 
L 194.328822 145.818355 
L 195.316821 146.942467 
L 196.337753 141.156081 
L 197.325753 145.622514 
L 198.346685 145.616393 
L 199.367618 144.183552 
L 200.28975 139.155043 
L 201.310683 142.934367 
L 202.298682 143.63604 
L 203.319614 138.268907 
L 204.307614 140.657727 
L 205.328546 137.535564 
L 206.349479 141.083099 
L 207.337478 137.29815 
L 208.35841 134.842551 
L 209.34641 135.175567 
L 210.367342 135.364387 
L 211.388275 133.441544 
L 213.33134 137.250473 
L 214.319339 135.067747 
L 215.340271 133.457633 
L 216.328271 133.690621 
L 217.349203 134.799412 
L 218.370136 132.560887 
L 219.358135 136.663115 
L 220.379067 134.388843 
L 221.367067 131.365764 
L 222.387999 132.530462 
L 223.408932 129.059927 
L 224.363998 131.572443 
L 225.38493 133.722989 
L 226.372929 127.20681 
L 227.393862 126.703685 
L 228.381861 129.036677 
L 229.402794 130.669392 
L 230.423726 128.438794 
L 231.411725 129.237367 
L 232.432658 128.909224 
L 233.420657 129.019685 
L 234.44159 124.713476 
L 235.462522 128.204682 
L 236.384655 128.51367 
L 237.405587 129.66303 
L 238.393586 127.652196 
L 239.414519 132.933556 
L 240.402518 128.817555 
L 241.423451 129.466559 
L 242.444383 131.745817 
L 243.432382 134.81467 
L 244.453315 129.6194 
L 245.441314 136.215242 
L 246.462247 137.136795 
L 247.483179 130.617064 
L 248.405312 131.353924 
L 249.426244 138.414728 
L 250.414244 134.302511 
L 251.435176 136.311398 
L 252.423175 136.348649 
L 253.444108 133.798484 
L 254.46504 135.462991 
L 255.45304 140.158767 
L 256.473972 140.212804 
L 257.461971 139.679564 
L 258.482904 139.622722 
L 259.503836 141.358553 
L 260.425969 138.561669 
L 261.446901 139.348905 
L 263.455833 138.163869 
L 264.443832 139.009045 
L 265.464765 138.902579 
L 266.485697 140.055753 
L 267.473697 146.313019 
L 268.494629 141.668609 
L 269.482628 145.699658 
L 270.503561 144.141274 
L 271.524493 143.211732 
L 272.479559 148.040293 
L 273.500492 150.527463 
L 274.488491 148.588353 
L 275.509424 153.158655 
L 276.497423 150.062166 
L 277.518355 155.400275 
L 278.539288 153.610848 
L 279.527287 155.633017 
L 280.54822 161.701182 
L 281.536219 162.075374 
L 282.557151 163.540991 
L 283.578084 163.193636 
L 284.500216 162.209663 
L 285.521149 168.301932 
L 286.509148 169.11627 
L 288.51808 173.9195 
L 289.539012 170.573616 
L 290.559945 174.414349 
L 291.547944 169.644799 
L 292.568877 173.244296 
L 293.556876 172.805291 
L 294.577808 168.738769 
L 295.598741 175.236119 
L 296.520873 175.517199 
L 297.541806 170.666658 
L 298.529805 170.865047 
L 299.550738 175.131239 
L 300.538737 175.967752 
L 301.559669 170.052573 
L 302.580602 173.524549 
L 303.568601 174.797178 
L 304.589534 170.653821 
L 305.577533 172.001444 
L 306.598465 176.017227 
L 307.619398 170.993939 
L 308.541531 171.63697 
L 309.562463 175.066711 
L 310.550462 175.393677 
L 311.571395 175.03628 
L 312.559394 172.460393 
L 313.580327 172.664274 
L 314.601259 173.829898 
L 315.589258 176.981495 
L 316.610191 174.553724 
L 317.59819 176.188083 
L 318.619123 175.19336 
L 319.640055 177.361486 
L 320.595121 171.388594 
L 321.616054 174.172414 
L 322.604053 176.272356 
L 323.624985 177.325195 
L 324.612984 176.205835 
L 325.633917 177.218719 
L 326.654849 176.29412 
L 327.642849 177.194407 
L 328.663781 178.978343 
L 329.65178 173.803807 
L 330.672713 180.613781 
L 331.693645 180.169882 
L 332.615778 179.427562 
L 333.636711 181.602326 
L 334.62471 181.498309 
L 335.645642 185.357082 
L 336.633642 182.046426 
L 337.654574 180.89058 
L 338.675507 185.334736 
L 339.663506 183.100337 
L 340.684438 188.028821 
L 341.672438 190.379791 
L 342.69337 189.654388 
L 343.714303 192.998164 
L 344.636435 191.644723 
L 345.657368 189.007332 
L 346.645367 192.410045 
L 347.666299 194.426835 
L 348.654299 198.273817 
L 349.675231 198.067798 
L 350.696164 193.395293 
L 351.684163 199.377188 
L 352.705095 195.576265 
L 353.693095 197.879584 
L 354.714027 201.612939 
L 355.73496 204.908434 
L 356.657092 206.727075 
L 357.678025 207.146066 
L 358.666024 203.388628 
L 359.686957 207.271603 
L 360.674956 205.167764 
L 361.695888 210.878646 
L 362.716821 214.524313 
L 363.70482 209.083251 
L 364.725753 216.173115 
L 365.713752 216.178019 
L 366.734684 213.891416 
L 367.755617 220.738277 
L 368.710683 220.105642 
L 369.731615 219.646034 
L 370.719614 220.47648 
L 371.740547 225.219142 
L 372.728546 224.443465 
L 373.749479 221.285678 
L 374.770411 228.180116 
L 375.75841 226.504146 
L 376.779343 230.326639 
L 377.767342 227.414829 
L 379.809207 231.887183 
L 380.73134 233.115896 
L 381.752272 237.3856 
L 382.740271 234.187198 
L 383.761204 235.190138 
L 384.749203 241.214247 
L 385.770136 242.116364 
L 386.791068 240.744359 
L 387.779067 240.033552 
L 387.779067 240.033552 
" style="fill:none;stroke:#1f77b4;stroke-linecap:square;stroke-width:1.5;"/>
   </g>
   <g id="patch_3">
    <path d="M 54 252 
L 54 34.56 
" style="fill:none;stroke:#000000;stroke-linecap:square;stroke-linejoin:miter;stroke-width:0.8;"/>
   </g>
   <g id="patch_4">
    <path d="M 388.8 252 
L 388.8 34.56 
" style="fill:none;stroke:#000000;stroke-linecap:square;stroke-linejoin:miter;stroke-width:0.8;"/>
   </g>
   <g id="patch_5">
    <path d="M 54 252 
L 388.8 252 
" style="fill:none;stroke:#000000;stroke-linecap:square;stroke-linejoin:miter;stroke-width:0.8;"/>
   </g>
   <g id="patch_6">
    <path d="M 54 34.56 
L 388.8 34.56 
" style="fill:none;stroke:#000000;stroke-linecap:square;stroke-linejoin:miter;stroke-width:0.8;"/>
   </g>
  </g>
 </g>
 <defs>
  <clipPath id="p49b7eb2b39">
   <rect height="217.44" width="334.8" x="54" y="34.56"/>
  </clipPath>
 </defs>
</svg>
