<?xml version="1.0" encoding="UTF-8"?>
<svg width="416px" height="260px" viewBox="0 0 416 260" version="1.1" xmlns="http://www.w3.org/2000/svg" xmlns:xlink="http://www.w3.org/1999/xlink">
    <!-- Generator: Sketch 52.2 (67145) - http://www.bohemiancoding.com/sketch -->
    <title>axes_1 2</title>
    <desc>Created with Sketch.</desc>
    <g id="Page-1" stroke="none" stroke-width="1" fill="none" fill-rule="evenodd">
        <g id="axes_1-2" transform="translate(-93.000000, -18.000000)">
            <g id="axes_1">
                <g id="patch_2" transform="translate(157.000000, 18.000000)" fill="#FFFFFF">
                    <polygon id="Path" points="0 218 334.8 218 334.8 0.56 0 0.56"></polygon>
                </g>
                <g id="matplotlib.axis_1" transform="translate(170.000000, 236.000000)" fill="#000000">
                    <g id="xtick_1">
                        <g id="line2d_1" transform="translate(16.000000, 0.000000)" stroke="#000000" stroke-width="0.8">
                            <g id="ma2786466b1-link" transform="translate(0.413639, 0.000000)">
                                <path d="M1,0 L1,3.5" id="ma2786466b1"></path>
                            </g>
                        </g>
                        <g id="text_1" transform="translate(0.000000, 7.000000)">
                            <g id="Group" transform="translate(17.518639, 5.527812) scale(-1, 1) rotate(-180.000000) translate(-17.518639, -5.527812) translate(0.998639, 0.137812)">
                                <g id="DejaVuSans-31-link" transform="translate(0.000000, 0.280000)">
                                    <polygon id="DejaVuSans-31" points="0.336875 1.1615625 2.5921875 1.1615625 2.5921875 8.9490625 0.1378125 8.456875 0.1378125 9.7146875 2.5790625 10.206875 3.959375 10.206875 3.959375 1.1615625 6.2146875 1.1615625 6.2146875 0 0.336875 0"></polygon>
                                </g>
                                <g id="DejaVuSans-39-link" transform="translate(8.347227, 0.000000)" fill-rule="nonzero">
                                    <path d="M0.6978125,0.4921875 L0.6978125,1.75 C1.04489583,1.58520833 1.395625,1.45979167 1.75,1.37375 C2.10583333,1.28770833 2.45510417,1.2446875 2.7978125,1.2446875 C3.70927083,1.2446875 4.40489583,1.5509375 4.8846875,2.1634375 C5.3659375,2.7759375 5.64083333,3.70708333 5.709375,4.956875 C5.44541667,4.56458333 5.11,4.2634375 4.703125,4.0534375 C4.29770833,3.8434375 3.84927083,3.7384375 3.3578125,3.7384375 C2.33697917,3.7384375 1.5290625,4.046875 0.9340625,4.66375 C0.3390625,5.28208333 0.0415625,6.1271875 0.0415625,7.1990625 C0.0415625,8.24614583 0.351458333,9.08614583 0.97125,9.7190625 C1.59104167,10.3534375 2.41572917,10.670625 3.4453125,10.670625 C4.6265625,10.670625 5.5278125,10.2178125 6.1490625,9.3121875 C6.77177083,8.40802083 7.083125,7.09479167 7.083125,5.3725 C7.083125,3.76395833 6.70104167,2.47989583 5.936875,1.5203125 C5.17416667,0.560729167 4.14822917,0.0809375 2.8590625,0.0809375 C2.51197917,0.0809375 2.16052083,0.115208333 1.8046875,0.18375 C1.4503125,0.252291667 1.08135417,0.355104167 0.6978125,0.4921875 Z M3.4453125,4.8190625 C4.06510417,4.8190625 4.55583333,5.03052083 4.9175,5.4534375 C5.280625,5.8778125 5.4621875,6.4596875 5.4621875,7.1990625 C5.4621875,7.93260417 5.280625,8.51229167 4.9175,8.938125 C4.55583333,9.36395833 4.06510417,9.576875 3.4453125,9.576875 C2.82552083,9.576875 2.33479167,9.36395833 1.973125,8.938125 C1.61145833,8.51229167 1.430625,7.93260417 1.430625,7.1990625 C1.430625,6.4596875 1.61145833,5.8778125 1.973125,5.4534375 C2.33479167,5.03052083 2.82552083,4.8190625 3.4453125,4.8190625 Z" id="DejaVuSans-39"></path>
                                </g>
                                <g id="DejaVuSans-39-link" transform="translate(17.254453, 0.000000)" fill-rule="nonzero">
                                    <path d="M0.6978125,0.4921875 L0.6978125,1.75 C1.04489583,1.58520833 1.395625,1.45979167 1.75,1.37375 C2.10583333,1.28770833 2.45510417,1.2446875 2.7978125,1.2446875 C3.70927083,1.2446875 4.40489583,1.5509375 4.8846875,2.1634375 C5.3659375,2.7759375 5.64083333,3.70708333 5.709375,4.956875 C5.44541667,4.56458333 5.11,4.2634375 4.703125,4.0534375 C4.29770833,3.8434375 3.84927083,3.7384375 3.3578125,3.7384375 C2.33697917,3.7384375 1.5290625,4.046875 0.9340625,4.66375 C0.3390625,5.28208333 0.0415625,6.1271875 0.0415625,7.1990625 C0.0415625,8.24614583 0.351458333,9.08614583 0.97125,9.7190625 C1.59104167,10.3534375 2.41572917,10.670625 3.4453125,10.670625 C4.6265625,10.670625 5.5278125,10.2178125 6.1490625,9.3121875 C6.77177083,8.40802083 7.083125,7.09479167 7.083125,5.3725 C7.083125,3.76395833 6.70104167,2.47989583 5.936875,1.5203125 C5.17416667,0.560729167 4.14822917,0.0809375 2.8590625,0.0809375 C2.51197917,0.0809375 2.16052083,0.115208333 1.8046875,0.18375 C1.4503125,0.252291667 1.08135417,0.355104167 0.6978125,0.4921875 Z M3.4453125,4.8190625 C4.06510417,4.8190625 4.55583333,5.03052083 4.9175,5.4534375 C5.280625,5.8778125 5.4621875,6.4596875 5.4621875,7.1990625 C5.4621875,7.93260417 5.280625,8.51229167 4.9175,8.938125 C4.55583333,9.36395833 4.06510417,9.576875 3.4453125,9.576875 C2.82552083,9.576875 2.33479167,9.36395833 1.973125,8.938125 C1.61145833,8.51229167 1.430625,7.93260417 1.430625,7.1990625 C1.430625,6.4596875 1.61145833,5.8778125 1.973125,5.4534375 C2.33479167,5.03052083 2.82552083,4.8190625 3.4453125,4.8190625 Z" id="DejaVuSans-39"></path>
                                </g>
                                <g id="DejaVuSans-31-link" transform="translate(26.721680, 0.280000)">
                                    <polygon id="DejaVuSans-31" points="0.336875 1.1615625 2.5921875 1.1615625 2.5921875 8.9490625 0.1378125 8.456875 0.1378125 9.7146875 2.5790625 10.206875 3.959375 10.206875 3.959375 1.1615625 6.2146875 1.1615625 6.2146875 0 0.336875 0"></polygon>
                                </g>
                            </g>
                        </g>
                    </g>
                    <g id="xtick_2" transform="translate(61.000000, 0.000000)">
                        <g id="line2d_2" transform="translate(16.000000, 0.000000)" stroke="#000000" stroke-width="0.8">
                            <g id="ma2786466b1-link" transform="translate(0.324241, 0.000000)">
                                <path d="M1,0 L1,3.5" id="ma2786466b1"></path>
                            </g>
                        </g>
                        <g id="text_2" transform="translate(0.000000, 7.000000)">
                            <g id="Group" transform="translate(17.499241, 5.527812) scale(-1, 1) rotate(-180.000000) translate(-17.499241, -5.527812) translate(0.909241, 0.137812)">
                                <g id="DejaVuSans-31-link" transform="translate(0.000000, 0.280000)">
                                    <polygon id="DejaVuSans-31" points="0.336875 1.1615625 2.5921875 1.1615625 2.5921875 8.9490625 0.1378125 8.456875 0.1378125 9.7146875 2.5790625 10.206875 3.959375 10.206875 3.959375 1.1615625 6.2146875 1.1615625 6.2146875 0 0.336875 0"></polygon>
                                </g>
                                <g id="DejaVuSans-39-link" transform="translate(8.347227, 0.000000)" fill-rule="nonzero">
                                    <path d="M0.6978125,0.4921875 L0.6978125,1.75 C1.04489583,1.58520833 1.395625,1.45979167 1.75,1.37375 C2.10583333,1.28770833 2.45510417,1.2446875 2.7978125,1.2446875 C3.70927083,1.2446875 4.40489583,1.5509375 4.8846875,2.1634375 C5.3659375,2.7759375 5.64083333,3.70708333 5.709375,4.956875 C5.44541667,4.56458333 5.11,4.2634375 4.703125,4.0534375 C4.29770833,3.8434375 3.84927083,3.7384375 3.3578125,3.7384375 C2.33697917,3.7384375 1.5290625,4.046875 0.9340625,4.66375 C0.3390625,5.28208333 0.0415625,6.1271875 0.0415625,7.1990625 C0.0415625,8.24614583 0.351458333,9.08614583 0.97125,9.7190625 C1.59104167,10.3534375 2.41572917,10.670625 3.4453125,10.670625 C4.6265625,10.670625 5.5278125,10.2178125 6.1490625,9.3121875 C6.77177083,8.40802083 7.083125,7.09479167 7.083125,5.3725 C7.083125,3.76395833 6.70104167,2.47989583 5.936875,1.5203125 C5.17416667,0.560729167 4.14822917,0.0809375 2.8590625,0.0809375 C2.51197917,0.0809375 2.16052083,0.115208333 1.8046875,0.18375 C1.4503125,0.252291667 1.08135417,0.355104167 0.6978125,0.4921875 Z M3.4453125,4.8190625 C4.06510417,4.8190625 4.55583333,5.03052083 4.9175,5.4534375 C5.280625,5.8778125 5.4621875,6.4596875 5.4621875,7.1990625 C5.4621875,7.93260417 5.280625,8.51229167 4.9175,8.938125 C4.55583333,9.36395833 4.06510417,9.576875 3.4453125,9.576875 C2.82552083,9.576875 2.33479167,9.36395833 1.973125,8.938125 C1.61145833,8.51229167 1.430625,7.93260417 1.430625,7.1990625 C1.430625,6.4596875 1.61145833,5.8778125 1.973125,5.4534375 C2.33479167,5.03052083 2.82552083,4.8190625 3.4453125,4.8190625 Z" id="DejaVuSans-39"></path>
                                </g>
                                <g id="DejaVuSans-39-link" transform="translate(17.254453, 0.000000)" fill-rule="nonzero">
                                    <path d="M0.6978125,0.4921875 L0.6978125,1.75 C1.04489583,1.58520833 1.395625,1.45979167 1.75,1.37375 C2.10583333,1.28770833 2.45510417,1.2446875 2.7978125,1.2446875 C3.70927083,1.2446875 4.40489583,1.5509375 4.8846875,2.1634375 C5.3659375,2.7759375 5.64083333,3.70708333 5.709375,4.956875 C5.44541667,4.56458333 5.11,4.2634375 4.703125,4.0534375 C4.29770833,3.8434375 3.84927083,3.7384375 3.3578125,3.7384375 C2.33697917,3.7384375 1.5290625,4.046875 0.9340625,4.66375 C0.3390625,5.28208333 0.0415625,6.1271875 0.0415625,7.1990625 C0.0415625,8.24614583 0.351458333,9.08614583 0.97125,9.7190625 C1.59104167,10.3534375 2.41572917,10.670625 3.4453125,10.670625 C4.6265625,10.670625 5.5278125,10.2178125 6.1490625,9.3121875 C6.77177083,8.40802083 7.083125,7.09479167 7.083125,5.3725 C7.083125,3.76395833 6.70104167,2.47989583 5.936875,1.5203125 C5.17416667,0.560729167 4.14822917,0.0809375 2.8590625,0.0809375 C2.51197917,0.0809375 2.16052083,0.115208333 1.8046875,0.18375 C1.4503125,0.252291667 1.08135417,0.355104167 0.6978125,0.4921875 Z M3.4453125,4.8190625 C4.06510417,4.8190625 4.55583333,5.03052083 4.9175,5.4534375 C5.280625,5.8778125 5.4621875,6.4596875 5.4621875,7.1990625 C5.4621875,7.93260417 5.280625,8.51229167 4.9175,8.938125 C4.55583333,9.36395833 4.06510417,9.576875 3.4453125,9.576875 C2.82552083,9.576875 2.33479167,9.36395833 1.973125,8.938125 C1.61145833,8.51229167 1.430625,7.93260417 1.430625,7.1990625 C1.430625,6.4596875 1.61145833,5.8778125 1.973125,5.4534375 C2.33479167,5.03052083 2.82552083,4.8190625 3.4453125,4.8190625 Z" id="DejaVuSans-39"></path>
                                </g>
                                <g id="DejaVuSans-33-link" transform="translate(26.301680, 0.000000)">
                                    <path d="M4.7009375,5.78375 C5.3615625,5.64229167 5.87708333,5.34770833 6.2475,4.9 C6.619375,4.45375 6.8053125,3.9025 6.8053125,3.24625 C6.8053125,2.24 6.45895833,1.46052083 5.76625,0.9078125 C5.07354167,0.3565625 4.08916667,0.0809375 2.813125,0.0809375 C2.38583333,0.0809375 1.94541667,0.123229167 1.491875,0.2078125 C1.03833333,0.292395833 0.570208333,0.419270833 0.0875,0.5884375 L0.0875,1.920625 C0.469583333,1.6975 0.888125,1.5290625 1.343125,1.4153125 C1.79958333,1.3015625 2.27645833,1.2446875 2.77375,1.2446875 C3.63854167,1.2446875 4.29770833,1.4153125 4.75125,1.7565625 C5.20479167,2.0978125 5.4315625,2.594375 5.4315625,3.24625 C5.4315625,3.84854167 5.22083333,4.31885417 4.799375,4.6571875 C4.37791667,4.99697917 3.79166667,5.166875 3.040625,5.166875 L1.850625,5.166875 L1.850625,6.3021875 L3.0953125,6.3021875 C3.7734375,6.3021875 4.29260417,6.4378125 4.6528125,6.7090625 C5.01302083,6.9803125 5.193125,7.37114583 5.193125,7.8815625 C5.193125,8.40510417 5.0071875,8.806875 4.6353125,9.086875 C4.26489583,9.36833333 3.73333333,9.5090625 3.040625,9.5090625 C2.66145833,9.5090625 2.2553125,9.4675 1.8221875,9.384375 C1.3890625,9.30270833 0.912916667,9.17583333 0.39375,9.00375 L0.39375,10.233125 C0.91875,10.3789583 1.41020833,10.4883333 1.868125,10.56125 C2.32604167,10.6341667 2.75770833,10.670625 3.163125,10.670625 C4.21166667,10.670625 5.04072917,10.4321875 5.6503125,9.9553125 C6.26135417,9.47989583 6.566875,8.83677083 6.566875,8.0259375 C6.566875,7.46010417 6.405,6.9825 6.08125,6.593125 C5.7575,6.20375 5.29739583,5.93395833 4.7009375,5.78375 Z" id="DejaVuSans-33"></path>
                                </g>
                            </g>
                        </g>
                    </g>
                    <g id="xtick_3" transform="translate(122.000000, 0.000000)">
                        <g id="line2d_3" transform="translate(16.000000, 0.000000)" stroke="#000000" stroke-width="0.8">
                            <g id="ma2786466b1-link" transform="translate(0.151518, 0.000000)">
                                <path d="M1,0 L1,3.5" id="ma2786466b1"></path>
                            </g>
                        </g>
                        <g id="text_3" transform="translate(0.000000, 7.000000)">
                            <g id="Group" transform="translate(17.256518, 5.527812) scale(-1, 1) rotate(-180.000000) translate(-17.256518, -5.527812) translate(0.736518, 0.137812)">
                                <g id="DejaVuSans-31-link" transform="translate(0.000000, 0.280000)">
                                    <polygon id="DejaVuSans-31" points="0.336875 1.1615625 2.5921875 1.1615625 2.5921875 8.9490625 0.1378125 8.456875 0.1378125 9.7146875 2.5790625 10.206875 3.959375 10.206875 3.959375 1.1615625 6.2146875 1.1615625 6.2146875 0 0.336875 0"></polygon>
                                </g>
                                <g id="DejaVuSans-39-link" transform="translate(8.347227, 0.000000)" fill-rule="nonzero">
                                    <path d="M0.6978125,0.4921875 L0.6978125,1.75 C1.04489583,1.58520833 1.395625,1.45979167 1.75,1.37375 C2.10583333,1.28770833 2.45510417,1.2446875 2.7978125,1.2446875 C3.70927083,1.2446875 4.40489583,1.5509375 4.8846875,2.1634375 C5.3659375,2.7759375 5.64083333,3.70708333 5.709375,4.956875 C5.44541667,4.56458333 5.11,4.2634375 4.703125,4.0534375 C4.29770833,3.8434375 3.84927083,3.7384375 3.3578125,3.7384375 C2.33697917,3.7384375 1.5290625,4.046875 0.9340625,4.66375 C0.3390625,5.28208333 0.0415625,6.1271875 0.0415625,7.1990625 C0.0415625,8.24614583 0.351458333,9.08614583 0.97125,9.7190625 C1.59104167,10.3534375 2.41572917,10.670625 3.4453125,10.670625 C4.6265625,10.670625 5.5278125,10.2178125 6.1490625,9.3121875 C6.77177083,8.40802083 7.083125,7.09479167 7.083125,5.3725 C7.083125,3.76395833 6.70104167,2.47989583 5.936875,1.5203125 C5.17416667,0.560729167 4.14822917,0.0809375 2.8590625,0.0809375 C2.51197917,0.0809375 2.16052083,0.115208333 1.8046875,0.18375 C1.4503125,0.252291667 1.08135417,0.355104167 0.6978125,0.4921875 Z M3.4453125,4.8190625 C4.06510417,4.8190625 4.55583333,5.03052083 4.9175,5.4534375 C5.280625,5.8778125 5.4621875,6.4596875 5.4621875,7.1990625 C5.4621875,7.93260417 5.280625,8.51229167 4.9175,8.938125 C4.55583333,9.36395833 4.06510417,9.576875 3.4453125,9.576875 C2.82552083,9.576875 2.33479167,9.36395833 1.973125,8.938125 C1.61145833,8.51229167 1.430625,7.93260417 1.430625,7.1990625 C1.430625,6.4596875 1.61145833,5.8778125 1.973125,5.4534375 C2.33479167,5.03052083 2.82552083,4.8190625 3.4453125,4.8190625 Z" id="DejaVuSans-39"></path>
                                </g>
                                <g id="DejaVuSans-39-link" transform="translate(17.254453, 0.000000)" fill-rule="nonzero">
                                    <path d="M0.6978125,0.4921875 L0.6978125,1.75 C1.04489583,1.58520833 1.395625,1.45979167 1.75,1.37375 C2.10583333,1.28770833 2.45510417,1.2446875 2.7978125,1.2446875 C3.70927083,1.2446875 4.40489583,1.5509375 4.8846875,2.1634375 C5.3659375,2.7759375 5.64083333,3.70708333 5.709375,4.956875 C5.44541667,4.56458333 5.11,4.2634375 4.703125,4.0534375 C4.29770833,3.8434375 3.84927083,3.7384375 3.3578125,3.7384375 C2.33697917,3.7384375 1.5290625,4.046875 0.9340625,4.66375 C0.3390625,5.28208333 0.0415625,6.1271875 0.0415625,7.1990625 C0.0415625,8.24614583 0.351458333,9.08614583 0.97125,9.7190625 C1.59104167,10.3534375 2.41572917,10.670625 3.4453125,10.670625 C4.6265625,10.670625 5.5278125,10.2178125 6.1490625,9.3121875 C6.77177083,8.40802083 7.083125,7.09479167 7.083125,5.3725 C7.083125,3.76395833 6.70104167,2.47989583 5.936875,1.5203125 C5.17416667,0.560729167 4.14822917,0.0809375 2.8590625,0.0809375 C2.51197917,0.0809375 2.16052083,0.115208333 1.8046875,0.18375 C1.4503125,0.252291667 1.08135417,0.355104167 0.6978125,0.4921875 Z M3.4453125,4.8190625 C4.06510417,4.8190625 4.55583333,5.03052083 4.9175,5.4534375 C5.280625,5.8778125 5.4621875,6.4596875 5.4621875,7.1990625 C5.4621875,7.93260417 5.280625,8.51229167 4.9175,8.938125 C4.55583333,9.36395833 4.06510417,9.576875 3.4453125,9.576875 C2.82552083,9.576875 2.33479167,9.36395833 1.973125,8.938125 C1.61145833,8.51229167 1.430625,7.93260417 1.430625,7.1990625 C1.430625,6.4596875 1.61145833,5.8778125 1.973125,5.4534375 C2.33479167,5.03052083 2.82552083,4.8190625 3.4453125,4.8190625 Z" id="DejaVuSans-39"></path>
                                </g>
                                <g id="DejaVuSans-35-link" transform="translate(26.301680, 0.000000)">
                                    <path d="M0.5315625,10.486875 L5.9521875,10.486875 L5.9521875,9.323125 L1.7959375,9.323125 L1.7959375,6.8228125 C1.99572917,6.89135417 2.19552083,6.94239583 2.3953125,6.9759375 C2.5965625,7.00947917 2.7978125,7.02625 2.9990625,7.02625 C4.13802083,7.02625 5.04,6.71416667 5.705,6.09 C6.37145833,5.46583333 6.7046875,4.62072917 6.7046875,3.5546875 C6.7046875,2.4565625 6.36270833,1.60270833 5.67875,0.993125 C4.99479167,0.385 4.03083333,0.0809375 2.786875,0.0809375 C2.358125,0.0809375 1.92135417,0.117395833 1.4765625,0.1903125 C1.03322917,0.263229167 0.574583333,0.372604167 0.100625,0.5184375 L0.100625,1.9075 C0.510416667,1.684375 0.9340625,1.518125 1.3715625,1.40875 C1.8090625,1.299375 2.27135417,1.2446875 2.7584375,1.2446875 C3.54739583,1.2446875 4.1715625,1.45177083 4.6309375,1.8659375 C5.09177083,2.28010417 5.3221875,2.84302083 5.3221875,3.5546875 C5.3221875,4.26489583 5.09177083,4.82708333 4.6309375,5.24125 C4.1715625,5.656875 3.54739583,5.8646875 2.7584375,5.8646875 C2.38947917,5.8646875 2.02125,5.82385417 1.65375,5.7421875 C1.28770833,5.66052083 0.913645833,5.53291667 0.5315625,5.359375 L0.5315625,10.486875 Z" id="DejaVuSans-35"></path>
                                </g>
                            </g>
                        </g>
                    </g>
                    <g id="xtick_4" transform="translate(183.000000, 0.000000)">
                        <g id="line2d_4" transform="translate(16.000000, 0.000000)" stroke="#000000" stroke-width="0.8">
                            <g id="ma2786466b1-link" transform="translate(0.062120, 0.000000)">
                                <path d="M1,0 L1,3.5" id="ma2786466b1"></path>
                            </g>
                        </g>
                        <g id="text_4" transform="translate(0.000000, 7.000000)">
                            <g id="Group" transform="translate(17.237120, 5.527812) scale(-1, 1) rotate(-180.000000) translate(-17.237120, -5.527812) translate(0.647120, 0.137812)">
                                <g id="DejaVuSans-31-link" transform="translate(0.000000, 0.280000)">
                                    <polygon id="DejaVuSans-31" points="0.336875 1.1615625 2.5921875 1.1615625 2.5921875 8.9490625 0.1378125 8.456875 0.1378125 9.7146875 2.5790625 10.206875 3.959375 10.206875 3.959375 1.1615625 6.2146875 1.1615625 6.2146875 0 0.336875 0"></polygon>
                                </g>
                                <g id="DejaVuSans-39-link" transform="translate(8.347227, 0.000000)" fill-rule="nonzero">
                                    <path d="M0.6978125,0.4921875 L0.6978125,1.75 C1.04489583,1.58520833 1.395625,1.45979167 1.75,1.37375 C2.10583333,1.28770833 2.45510417,1.2446875 2.7978125,1.2446875 C3.70927083,1.2446875 4.40489583,1.5509375 4.8846875,2.1634375 C5.3659375,2.7759375 5.64083333,3.70708333 5.709375,4.956875 C5.44541667,4.56458333 5.11,4.2634375 4.703125,4.0534375 C4.29770833,3.8434375 3.84927083,3.7384375 3.3578125,3.7384375 C2.33697917,3.7384375 1.5290625,4.046875 0.9340625,4.66375 C0.3390625,5.28208333 0.0415625,6.1271875 0.0415625,7.1990625 C0.0415625,8.24614583 0.351458333,9.08614583 0.97125,9.7190625 C1.59104167,10.3534375 2.41572917,10.670625 3.4453125,10.670625 C4.6265625,10.670625 5.5278125,10.2178125 6.1490625,9.3121875 C6.77177083,8.40802083 7.083125,7.09479167 7.083125,5.3725 C7.083125,3.76395833 6.70104167,2.47989583 5.936875,1.5203125 C5.17416667,0.560729167 4.14822917,0.0809375 2.8590625,0.0809375 C2.51197917,0.0809375 2.16052083,0.115208333 1.8046875,0.18375 C1.4503125,0.252291667 1.08135417,0.355104167 0.6978125,0.4921875 Z M3.4453125,4.8190625 C4.06510417,4.8190625 4.55583333,5.03052083 4.9175,5.4534375 C5.280625,5.8778125 5.4621875,6.4596875 5.4621875,7.1990625 C5.4621875,7.93260417 5.280625,8.51229167 4.9175,8.938125 C4.55583333,9.36395833 4.06510417,9.576875 3.4453125,9.576875 C2.82552083,9.576875 2.33479167,9.36395833 1.973125,8.938125 C1.61145833,8.51229167 1.430625,7.93260417 1.430625,7.1990625 C1.430625,6.4596875 1.61145833,5.8778125 1.973125,5.4534375 C2.33479167,5.03052083 2.82552083,4.8190625 3.4453125,4.8190625 Z" id="DejaVuSans-39"></path>
                                </g>
                                <g id="DejaVuSans-39-link" transform="translate(17.254453, 0.000000)" fill-rule="nonzero">
                                    <path d="M0.6978125,0.4921875 L0.6978125,1.75 C1.04489583,1.58520833 1.395625,1.45979167 1.75,1.37375 C2.10583333,1.28770833 2.45510417,1.2446875 2.7978125,1.2446875 C3.70927083,1.2446875 4.40489583,1.5509375 4.8846875,2.1634375 C5.3659375,2.7759375 5.64083333,3.70708333 5.709375,4.956875 C5.44541667,4.56458333 5.11,4.2634375 4.703125,4.0534375 C4.29770833,3.8434375 3.84927083,3.7384375 3.3578125,3.7384375 C2.33697917,3.7384375 1.5290625,4.046875 0.9340625,4.66375 C0.3390625,5.28208333 0.0415625,6.1271875 0.0415625,7.1990625 C0.0415625,8.24614583 0.351458333,9.08614583 0.97125,9.7190625 C1.59104167,10.3534375 2.41572917,10.670625 3.4453125,10.670625 C4.6265625,10.670625 5.5278125,10.2178125 6.1490625,9.3121875 C6.77177083,8.40802083 7.083125,7.09479167 7.083125,5.3725 C7.083125,3.76395833 6.70104167,2.47989583 5.936875,1.5203125 C5.17416667,0.560729167 4.14822917,0.0809375 2.8590625,0.0809375 C2.51197917,0.0809375 2.16052083,0.115208333 1.8046875,0.18375 C1.4503125,0.252291667 1.08135417,0.355104167 0.6978125,0.4921875 Z M3.4453125,4.8190625 C4.06510417,4.8190625 4.55583333,5.03052083 4.9175,5.4534375 C5.280625,5.8778125 5.4621875,6.4596875 5.4621875,7.1990625 C5.4621875,7.93260417 5.280625,8.51229167 4.9175,8.938125 C4.55583333,9.36395833 4.06510417,9.576875 3.4453125,9.576875 C2.82552083,9.576875 2.33479167,9.36395833 1.973125,8.938125 C1.61145833,8.51229167 1.430625,7.93260417 1.430625,7.1990625 C1.430625,6.4596875 1.61145833,5.8778125 1.973125,5.4534375 C2.33479167,5.03052083 2.82552083,4.8190625 3.4453125,4.8190625 Z" id="DejaVuSans-39"></path>
                                </g>
                                <g id="DejaVuSans-37-link" transform="translate(26.441680, 0.280000)">
                                    <polygon id="DejaVuSans-37" points="0.0284375 10.206875 6.5909375 10.206875 6.5909375 9.6184375 2.8853125 0 1.44375 0 4.930625 9.043125 0.0284375 9.043125"></polygon>
                                </g>
                            </g>
                        </g>
                    </g>
                    <g id="xtick_5" transform="translate(244.000000, 0.000000)">
                        <g id="line2d_5" transform="translate(15.000000, 0.000000)" stroke="#000000" stroke-width="0.8">
                            <g id="ma2786466b1-link" transform="translate(0.889398, 0.000000)">
                                <path d="M1,0 L1,3.5" id="ma2786466b1"></path>
                            </g>
                        </g>
                        <g id="text_5" transform="translate(0.000000, 7.000000)">
                            <g id="Group" transform="translate(17.134398, 5.527812) scale(-1, 1) rotate(-180.000000) translate(-17.134398, -5.527812) translate(0.474398, 0.137812)">
                                <g id="DejaVuSans-31-link" transform="translate(0.000000, 0.280000)">
                                    <polygon id="DejaVuSans-31" points="0.336875 1.1615625 2.5921875 1.1615625 2.5921875 8.9490625 0.1378125 8.456875 0.1378125 9.7146875 2.5790625 10.206875 3.959375 10.206875 3.959375 1.1615625 6.2146875 1.1615625 6.2146875 0 0.336875 0"></polygon>
                                </g>
                                <g id="DejaVuSans-39-link" transform="translate(8.347227, 0.000000)" fill-rule="nonzero">
                                    <path d="M0.6978125,0.4921875 L0.6978125,1.75 C1.04489583,1.58520833 1.395625,1.45979167 1.75,1.37375 C2.10583333,1.28770833 2.45510417,1.2446875 2.7978125,1.2446875 C3.70927083,1.2446875 4.40489583,1.5509375 4.8846875,2.1634375 C5.3659375,2.7759375 5.64083333,3.70708333 5.709375,4.956875 C5.44541667,4.56458333 5.11,4.2634375 4.703125,4.0534375 C4.29770833,3.8434375 3.84927083,3.7384375 3.3578125,3.7384375 C2.33697917,3.7384375 1.5290625,4.046875 0.9340625,4.66375 C0.3390625,5.28208333 0.0415625,6.1271875 0.0415625,7.1990625 C0.0415625,8.24614583 0.351458333,9.08614583 0.97125,9.7190625 C1.59104167,10.3534375 2.41572917,10.670625 3.4453125,10.670625 C4.6265625,10.670625 5.5278125,10.2178125 6.1490625,9.3121875 C6.77177083,8.40802083 7.083125,7.09479167 7.083125,5.3725 C7.083125,3.76395833 6.70104167,2.47989583 5.936875,1.5203125 C5.17416667,0.560729167 4.14822917,0.0809375 2.8590625,0.0809375 C2.51197917,0.0809375 2.16052083,0.115208333 1.8046875,0.18375 C1.4503125,0.252291667 1.08135417,0.355104167 0.6978125,0.4921875 Z M3.4453125,4.8190625 C4.06510417,4.8190625 4.55583333,5.03052083 4.9175,5.4534375 C5.280625,5.8778125 5.4621875,6.4596875 5.4621875,7.1990625 C5.4621875,7.93260417 5.280625,8.51229167 4.9175,8.938125 C4.55583333,9.36395833 4.06510417,9.576875 3.4453125,9.576875 C2.82552083,9.576875 2.33479167,9.36395833 1.973125,8.938125 C1.61145833,8.51229167 1.430625,7.93260417 1.430625,7.1990625 C1.430625,6.4596875 1.61145833,5.8778125 1.973125,5.4534375 C2.33479167,5.03052083 2.82552083,4.8190625 3.4453125,4.8190625 Z" id="DejaVuSans-39"></path>
                                </g>
                                <g id="DejaVuSans-39-link" transform="translate(17.254453, 0.000000)" fill-rule="nonzero">
                                    <path d="M0.6978125,0.4921875 L0.6978125,1.75 C1.04489583,1.58520833 1.395625,1.45979167 1.75,1.37375 C2.10583333,1.28770833 2.45510417,1.2446875 2.7978125,1.2446875 C3.70927083,1.2446875 4.40489583,1.5509375 4.8846875,2.1634375 C5.3659375,2.7759375 5.64083333,3.70708333 5.709375,4.956875 C5.44541667,4.56458333 5.11,4.2634375 4.703125,4.0534375 C4.29770833,3.8434375 3.84927083,3.7384375 3.3578125,3.7384375 C2.33697917,3.7384375 1.5290625,4.046875 0.9340625,4.66375 C0.3390625,5.28208333 0.0415625,6.1271875 0.0415625,7.1990625 C0.0415625,8.24614583 0.351458333,9.08614583 0.97125,9.7190625 C1.59104167,10.3534375 2.41572917,10.670625 3.4453125,10.670625 C4.6265625,10.670625 5.5278125,10.2178125 6.1490625,9.3121875 C6.77177083,8.40802083 7.083125,7.09479167 7.083125,5.3725 C7.083125,3.76395833 6.70104167,2.47989583 5.936875,1.5203125 C5.17416667,0.560729167 4.14822917,0.0809375 2.8590625,0.0809375 C2.51197917,0.0809375 2.16052083,0.115208333 1.8046875,0.18375 C1.4503125,0.252291667 1.08135417,0.355104167 0.6978125,0.4921875 Z M3.4453125,4.8190625 C4.06510417,4.8190625 4.55583333,5.03052083 4.9175,5.4534375 C5.280625,5.8778125 5.4621875,6.4596875 5.4621875,7.1990625 C5.4621875,7.93260417 5.280625,8.51229167 4.9175,8.938125 C4.55583333,9.36395833 4.06510417,9.576875 3.4453125,9.576875 C2.82552083,9.576875 2.33479167,9.36395833 1.973125,8.938125 C1.61145833,8.51229167 1.430625,7.93260417 1.430625,7.1990625 C1.430625,6.4596875 1.61145833,5.8778125 1.973125,5.4534375 C2.33479167,5.03052083 2.82552083,4.8190625 3.4453125,4.8190625 Z" id="DejaVuSans-39"></path>
                                </g>
                                <g id="DejaVuSans-39-link" transform="translate(26.161680, 0.000000)" fill-rule="nonzero">
                                    <path d="M0.6978125,0.4921875 L0.6978125,1.75 C1.04489583,1.58520833 1.395625,1.45979167 1.75,1.37375 C2.10583333,1.28770833 2.45510417,1.2446875 2.7978125,1.2446875 C3.70927083,1.2446875 4.40489583,1.5509375 4.8846875,2.1634375 C5.3659375,2.7759375 5.64083333,3.70708333 5.709375,4.956875 C5.44541667,4.56458333 5.11,4.2634375 4.703125,4.0534375 C4.29770833,3.8434375 3.84927083,3.7384375 3.3578125,3.7384375 C2.33697917,3.7384375 1.5290625,4.046875 0.9340625,4.66375 C0.3390625,5.28208333 0.0415625,6.1271875 0.0415625,7.1990625 C0.0415625,8.24614583 0.351458333,9.08614583 0.97125,9.7190625 C1.59104167,10.3534375 2.41572917,10.670625 3.4453125,10.670625 C4.6265625,10.670625 5.5278125,10.2178125 6.1490625,9.3121875 C6.77177083,8.40802083 7.083125,7.09479167 7.083125,5.3725 C7.083125,3.76395833 6.70104167,2.47989583 5.936875,1.5203125 C5.17416667,0.560729167 4.14822917,0.0809375 2.8590625,0.0809375 C2.51197917,0.0809375 2.16052083,0.115208333 1.8046875,0.18375 C1.4503125,0.252291667 1.08135417,0.355104167 0.6978125,0.4921875 Z M3.4453125,4.8190625 C4.06510417,4.8190625 4.55583333,5.03052083 4.9175,5.4534375 C5.280625,5.8778125 5.4621875,6.4596875 5.4621875,7.1990625 C5.4621875,7.93260417 5.280625,8.51229167 4.9175,8.938125 C4.55583333,9.36395833 4.06510417,9.576875 3.4453125,9.576875 C2.82552083,9.576875 2.33479167,9.36395833 1.973125,8.938125 C1.61145833,8.51229167 1.430625,7.93260417 1.430625,7.1990625 C1.430625,6.4596875 1.61145833,5.8778125 1.973125,5.4534375 C2.33479167,5.03052083 2.82552083,4.8190625 3.4453125,4.8190625 Z" id="DejaVuSans-39"></path>
                                </g>
                            </g>
                        </g>
                    </g>
                    <g id="xtick_6" transform="translate(304.000000, 0.000000)">
                        <g id="line2d_6" transform="translate(16.000000, 0.000000)" stroke="#000000" stroke-width="0.8">
                            <g id="ma2786466b1-link" transform="translate(0.800000, 0.000000)">
                                <path d="M1,0 L1,3.5" id="ma2786466b1"></path>
                            </g>
                        </g>
                        <g id="text_6" transform="translate(0.000000, 7.000000)">
                            <g id="Group" transform="translate(17.695000, 5.527812) scale(-1, 1) rotate(-180.000000) translate(-17.695000, -5.527812) translate(0.965000, 0.137812)">
                                <g id="DejaVuSans-32-link" transform="translate(0.000000, 0.280000)">
                                    <path d="M1.70625,1.1615625 L6.5253125,1.1615625 L6.5253125,0 L0.0459375,0 L0.0459375,1.1615625 C0.569479167,1.7040625 1.28333333,2.43177083 2.1875,3.3446875 C3.093125,4.2590625 3.661875,4.84895833 3.89375,5.114375 C4.335625,5.61020833 4.6440625,6.03020833 4.8190625,6.374375 C4.99552083,6.71854167 5.08375,7.056875 5.08375,7.389375 C5.08375,7.931875 4.8934375,8.37375 4.5128125,8.715 C4.1321875,9.05770833 3.63635417,9.2290625 3.0253125,9.2290625 C2.5921875,9.2290625 2.135,9.15395833 1.65375,9.00375 C1.17395833,8.85354167 0.660625,8.6253125 0.11375,8.3190625 L0.11375,9.7146875 C0.669375,9.9378125 1.18854167,10.10625 1.67125,10.22 C2.15541667,10.33375 2.59802083,10.390625 2.9990625,10.390625 C4.05635417,10.390625 4.89927083,10.1259375 5.5278125,9.5965625 C6.15635417,9.06864583 6.470625,8.3628125 6.470625,7.4790625 C6.470625,7.0590625 6.391875,6.6609375 6.234375,6.2846875 C6.07833333,5.90989583 5.7925,5.46729167 5.376875,4.956875 C5.263125,4.82416667 4.90072917,4.44208333 4.2896875,3.810625 C3.68010417,3.17916667 2.81895833,2.29614583 1.70625,1.1615625 Z" id="DejaVuSans-32"></path>
                                </g>
                                <g id="DejaVuSans-30-link" transform="translate(8.767227, 0.000000)" fill-rule="nonzero">
                                    <path d="M3.609375,9.576875 C2.89916667,9.576875 2.3646875,9.226875 2.0059375,8.526875 C1.64864583,7.82833333 1.47,6.776875 1.47,5.3725 C1.47,3.97395833 1.64864583,2.9246875 2.0059375,2.2246875 C2.3646875,1.5246875 2.89916667,1.1746875 3.609375,1.1746875 C4.32541667,1.1746875 4.86208333,1.5246875 5.219375,2.2246875 C5.578125,2.9246875 5.7575,3.97395833 5.7575,5.3725 C5.7575,6.776875 5.578125,7.82833333 5.219375,8.526875 C4.86208333,9.226875 4.32541667,9.576875 3.609375,9.576875 Z M3.609375,10.670625 C4.75416667,10.670625 5.6284375,10.2178125 6.2321875,9.3121875 C6.8359375,8.40802083 7.1378125,7.09479167 7.1378125,5.3725 C7.1378125,3.65458333 6.8359375,2.3428125 6.2321875,1.4371875 C5.6284375,0.533020833 4.75416667,0.0809375 3.609375,0.0809375 C2.46604167,0.0809375 1.5925,0.533020833 0.98875,1.4371875 C0.385,2.3428125 0.083125,3.65458333 0.083125,5.3725 C0.083125,7.09479167 0.385,8.40802083 0.98875,9.3121875 C1.5925,10.2178125 2.46604167,10.670625 3.609375,10.670625 Z" id="DejaVuSans-30"></path>
                                </g>
                                <g id="DejaVuSans-30-link" transform="translate(17.674453, 0.000000)" fill-rule="nonzero">
                                    <path d="M3.609375,9.576875 C2.89916667,9.576875 2.3646875,9.226875 2.0059375,8.526875 C1.64864583,7.82833333 1.47,6.776875 1.47,5.3725 C1.47,3.97395833 1.64864583,2.9246875 2.0059375,2.2246875 C2.3646875,1.5246875 2.89916667,1.1746875 3.609375,1.1746875 C4.32541667,1.1746875 4.86208333,1.5246875 5.219375,2.2246875 C5.578125,2.9246875 5.7575,3.97395833 5.7575,5.3725 C5.7575,6.776875 5.578125,7.82833333 5.219375,8.526875 C4.86208333,9.226875 4.32541667,9.576875 3.609375,9.576875 Z M3.609375,10.670625 C4.75416667,10.670625 5.6284375,10.2178125 6.2321875,9.3121875 C6.8359375,8.40802083 7.1378125,7.09479167 7.1378125,5.3725 C7.1378125,3.65458333 6.8359375,2.3428125 6.2321875,1.4371875 C5.6284375,0.533020833 4.75416667,0.0809375 3.609375,0.0809375 C2.46604167,0.0809375 1.5925,0.533020833 0.98875,1.4371875 C0.385,2.3428125 0.083125,3.65458333 0.083125,5.3725 C0.083125,7.09479167 0.385,8.40802083 0.98875,9.3121875 C1.5925,10.2178125 2.46604167,10.670625 3.609375,10.670625 Z" id="DejaVuSans-30"></path>
                                </g>
                                <g id="DejaVuSans-31-link" transform="translate(27.141680, 0.280000)">
                                    <polygon id="DejaVuSans-31" points="0.336875 1.1615625 2.5921875 1.1615625 2.5921875 8.9490625 0.1378125 8.456875 0.1378125 9.7146875 2.5790625 10.206875 3.959375 10.206875 3.959375 1.1615625 6.2146875 1.1615625 6.2146875 0 0.336875 0"></polygon>
                                </g>
                            </g>
                        </g>
                    </g>
                    <g id="text_7" transform="translate(130.000000, 25.000000)">
                        <g id="Group" transform="translate(24.948281, 8.455938) scale(-1, 1) rotate(-180.000000) translate(-24.948281, -8.455938) translate(0.088281, 0.205938)">
                            <g id="DejaVuSans-44-link" transform="translate(0.000000, 0.440000)" fill-rule="nonzero">
                                <path d="M2.3478125,14.2553125 L2.3478125,1.7840625 L4.970625,1.7840625 C7.184375,1.7840625 8.80458333,2.28479167 9.83125,3.28625 C10.8579167,4.29 11.37125,5.87354167 11.37125,8.036875 C11.37125,10.1841667 10.8579167,11.7573958 9.83125,12.7565625 C8.80458333,13.7557292 7.184375,14.2553125 4.970625,14.2553125 L2.3478125,14.2553125 Z M0.17875,16.039375 L4.6371875,16.039375 C7.7446875,16.039375 10.0248958,15.393125 11.4778125,14.100625 C12.9330208,12.808125 13.660625,10.786875 13.660625,8.036875 C13.660625,5.27083333 12.9295833,3.23927083 11.4675,1.9421875 C10.0077083,0.647395833 7.7309375,0 4.6371875,0 L0.17875,0 L0.17875,16.039375 Z" id="DejaVuSans-44"></path>
                            </g>
                            <g id="DejaVuSans-61-link" transform="translate(16.280430, 0.000000)" fill-rule="nonzero">
                                <path d="M6.221875,6.4865625 C4.62458333,6.4865625 3.51770833,6.304375 2.90125,5.94 C2.28479167,5.575625 1.9765625,4.95229167 1.9765625,4.07 C1.9765625,3.36875 2.20802083,2.811875 2.6709375,2.399375 C3.13385417,1.98916667 3.76177083,1.7840625 4.5546875,1.7840625 C5.65239583,1.7840625 6.53239583,2.1725 7.1946875,2.949375 C7.85697917,3.72625 8.188125,4.75864583 8.188125,6.0465625 L8.188125,6.4865625 L6.221875,6.4865625 Z M10.1646875,7.3046875 L10.1646875,0.44 L8.188125,0.44 L8.188125,2.2653125 C7.73666667,1.5365625 7.1740625,0.998020833 6.5003125,0.6496875 C5.8265625,0.301354167 5.00270833,0.1271875 4.02875,0.1271875 C2.798125,0.1271875 1.8184375,0.473229167 1.0896875,1.1653125 C0.363229167,1.85739583 0,2.78322917 0,3.9428125 C0,5.29489583 0.452604167,6.3146875 1.3578125,7.0021875 C2.2653125,7.6896875 3.61739583,8.0334375 5.4140625,8.0334375 L8.188125,8.0334375 L8.188125,8.229375 C8.188125,9.13916667 7.8890625,9.84270833 7.2909375,10.34 C6.6928125,10.8372917 5.85291667,11.0859375 4.77125,11.0859375 C4.08375,11.0859375 3.4134375,11.0034375 2.7603125,10.8384375 C2.10947917,10.6734375 1.48385417,10.4259375 0.8834375,10.0959375 L0.8834375,11.9246875 C1.6053125,12.2042708 2.3065625,12.4128125 2.9871875,12.5503125 C3.6678125,12.6901042 4.33010417,12.76 4.9740625,12.76 C6.71572917,12.76 8.01625,12.3085417 8.875625,11.405625 C9.735,10.505 10.1646875,9.13802083 10.1646875,7.3046875 Z" id="DejaVuSans-61"></path>
                            </g>
                            <g id="DejaVuSans-74-link" transform="translate(28.881875, 0.440000)">
                                <path d="M3.58875,15.448125 L3.58875,12.03125 L7.65875,12.03125 L7.65875,10.4946875 L3.58875,10.4946875 L3.58875,3.9634375 C3.58875,2.98260417 3.7228125,2.35239583 3.9909375,2.0728125 C4.2590625,1.79322917 4.805625,1.6534375 5.630625,1.6534375 L7.65875,1.6534375 L7.65875,0 L5.630625,0 C4.104375,0 3.05135417,0.284166667 2.4715625,0.8525 C1.89177083,1.423125 1.601875,2.46010417 1.601875,3.9634375 L1.601875,10.4946875 L0.15125,10.4946875 L0.15125,12.03125 L1.601875,12.03125 L1.601875,15.448125 L3.58875,15.448125 Z" id="DejaVuSans-74"></path>
                            </g>
                            <g id="DejaVuSans-65-link" transform="translate(38.167851, 0.000000)" fill-rule="nonzero">
                                <path d="M11.2646875,6.950625 L11.2646875,5.9846875 L2.1759375,5.9846875 C2.26302083,4.6234375 2.67322917,3.58645833 3.4065625,2.87375 C4.13989583,2.16104167 5.16197917,1.8046875 6.4728125,1.8046875 C7.23135417,1.8046875 7.96697917,1.8975 8.6796875,2.083125 C9.39239583,2.26875 10.1005208,2.54833333 10.8040625,2.921875 L10.8040625,1.051875 C10.0936458,0.751666667 9.36604167,0.5225 8.62125,0.364375 C7.87645833,0.20625 7.12135417,0.1271875 6.3559375,0.1271875 C4.43552083,0.1271875 2.915,0.685208333 1.794375,1.80125 C0.67375,2.91958333 0.1134375,4.43208333 0.1134375,6.33875 C0.1134375,8.30729167 0.645104167,9.8690625 1.7084375,11.0240625 C2.77177083,12.1813542 4.20635417,12.76 6.0121875,12.76 C7.63010417,12.76 8.91,12.2386458 9.851875,11.1959375 C10.79375,10.1555208 11.2646875,8.74041667 11.2646875,6.950625 Z M9.288125,7.5315625 C9.274375,8.6109375 8.971875,9.47260417 8.380625,10.1165625 C7.789375,10.7628125 7.00677083,11.0859375 6.0328125,11.0859375 C4.93052083,11.0859375 4.04822917,10.7742708 3.3859375,10.1509375 C2.72364583,9.52760417 2.34208333,8.64989583 2.24125,7.5178125 L9.288125,7.5315625 Z" id="DejaVuSans-65"></path>
                            </g>
                        </g>
                    </g>
                </g>
                <g id="matplotlib.axis_2">
                    <g id="ytick_1" transform="translate(128.000000, 220.000000)" fill="#000000">
                        <g id="line2d_7" transform="translate(25.000000, 5.000000)" stroke="#000000" stroke-width="0.8">
                            <g id="m028a79e3e6-link" transform="translate(0.000000, 0.116364)">
                                <path d="M4,1 L0.5,1" id="m028a79e3e6"></path>
                            </g>
                        </g>
                        <g id="text_8" fill-rule="nonzero">
                            <g id="Group" transform="translate(10.850312, 6.325270) scale(-1, 1) rotate(-180.000000) translate(-10.850312, -6.325270) translate(0.490312, 0.935270)">
                                <g id="DejaVuSans-25-link">
                                    <path d="M9.4784375,4.7709375 C9.08177083,4.7709375 8.77041667,4.6025 8.544375,4.265625 C8.31979167,3.92875 8.2075,3.45916667 8.2075,2.856875 C8.2075,2.26479167 8.31979167,1.79885417 8.544375,1.4590625 C8.77041667,1.11927083 9.08177083,0.949375 9.4784375,0.949375 C9.86635417,0.949375 10.1726042,1.11927083 10.3971875,1.4590625 C10.6232292,1.79885417 10.73625,2.26479167 10.73625,2.856875 C10.73625,3.45479167 10.6232292,3.92291667 10.3971875,4.26125 C10.1726042,4.60104167 9.86635417,4.7709375 9.4784375,4.7709375 Z M9.4784375,5.639375 C10.1988542,5.639375 10.7705208,5.38854167 11.1934375,4.886875 C11.6178125,4.38666667 11.83,3.71 11.83,2.856875 C11.83,2.00520833 11.6170833,1.32927083 11.19125,0.8290625 C10.7654167,0.3303125 10.1944792,0.0809375 9.4784375,0.0809375 C8.74927083,0.0809375 8.1725,0.3303125 7.748125,0.8290625 C7.32520833,1.32927083 7.11375,2.00520833 7.11375,2.856875 C7.11375,3.714375 7.32666667,4.3925 7.7525,4.89125 C8.17833333,5.39 8.75364583,5.639375 9.4784375,5.639375 Z M2.42375,9.8021875 C2.03145833,9.8021875 1.72229167,9.63229167 1.49625,9.2925 C1.27166667,8.95416667 1.159375,8.48822917 1.159375,7.8946875 C1.159375,7.29385417 1.2709375,6.82427083 1.4940625,6.4859375 C1.7171875,6.1490625 2.02708333,5.980625 2.42375,5.980625 C2.82041667,5.980625 3.13104167,6.1490625 3.355625,6.4859375 C3.58166667,6.82427083 3.6946875,7.29385417 3.6946875,7.8946875 C3.6946875,8.48239583 3.5809375,8.946875 3.3534375,9.288125 C3.1259375,9.63083333 2.81604167,9.8021875 2.42375,9.8021875 Z M8.596875,10.670625 L9.690625,10.670625 L3.3053125,0.0809375 L2.2115625,0.0809375 L8.596875,10.670625 Z M2.42375,10.670625 C3.14416667,10.670625 3.71802083,10.42125 4.1453125,9.9225 C4.5740625,9.42375 4.7884375,8.7478125 4.7884375,7.8946875 C4.7884375,7.03427083 4.57552083,6.35541667 4.1496875,5.858125 C3.72385417,5.36083333 3.14854167,5.1121875 2.42375,5.1121875 C1.69895833,5.1121875 1.12583333,5.3615625 0.704375,5.8603125 C0.282916667,6.36052083 0.0721875,7.03864583 0.0721875,7.8946875 C0.0721875,8.7434375 0.283645833,9.41791667 0.7065625,9.918125 C1.1309375,10.4197917 1.70333333,10.670625 2.42375,10.670625 Z" id="DejaVuSans-25"></path>
                                </g>
                                <g id="DejaVuSans-30-link" transform="translate(13.442734, 0.000000)">
                                    <path d="M3.609375,9.576875 C2.89916667,9.576875 2.3646875,9.226875 2.0059375,8.526875 C1.64864583,7.82833333 1.47,6.776875 1.47,5.3725 C1.47,3.97395833 1.64864583,2.9246875 2.0059375,2.2246875 C2.3646875,1.5246875 2.89916667,1.1746875 3.609375,1.1746875 C4.32541667,1.1746875 4.86208333,1.5246875 5.219375,2.2246875 C5.578125,2.9246875 5.7575,3.97395833 5.7575,5.3725 C5.7575,6.776875 5.578125,7.82833333 5.219375,8.526875 C4.86208333,9.226875 4.32541667,9.576875 3.609375,9.576875 Z M3.609375,10.670625 C4.75416667,10.670625 5.6284375,10.2178125 6.2321875,9.3121875 C6.8359375,8.40802083 7.1378125,7.09479167 7.1378125,5.3725 C7.1378125,3.65458333 6.8359375,2.3428125 6.2321875,1.4371875 C5.6284375,0.533020833 4.75416667,0.0809375 3.609375,0.0809375 C2.46604167,0.0809375 1.5925,0.533020833 0.98875,1.4371875 C0.385,2.3428125 0.083125,3.65458333 0.083125,5.3725 C0.083125,7.09479167 0.385,8.40802083 0.98875,9.3121875 C1.5925,10.2178125 2.46604167,10.670625 3.609375,10.670625 Z" id="DejaVuSans-30"></path>
                                </g>
                            </g>
                        </g>
                    </g>
                    <g id="ytick_2" transform="translate(128.000000, 162.000000)" fill="#000000">
                        <g id="line2d_8" transform="translate(25.000000, 4.000000)" stroke="#000000" stroke-width="0.8">
                            <g id="m028a79e3e6-link" transform="translate(0.000000, 0.677570)">
                                <path d="M4,1 L0.5,1" id="m028a79e3e6"></path>
                            </g>
                        </g>
                        <g id="text_9">
                            <g id="Group" transform="translate(10.710312, 5.886476) scale(-1, 1) rotate(-180.000000) translate(-10.710312, -5.886476) translate(0.490312, 0.496476)">
                                <g id="DejaVuSans-25-link" fill-rule="nonzero">
                                    <path d="M9.4784375,4.7709375 C9.08177083,4.7709375 8.77041667,4.6025 8.544375,4.265625 C8.31979167,3.92875 8.2075,3.45916667 8.2075,2.856875 C8.2075,2.26479167 8.31979167,1.79885417 8.544375,1.4590625 C8.77041667,1.11927083 9.08177083,0.949375 9.4784375,0.949375 C9.86635417,0.949375 10.1726042,1.11927083 10.3971875,1.4590625 C10.6232292,1.79885417 10.73625,2.26479167 10.73625,2.856875 C10.73625,3.45479167 10.6232292,3.92291667 10.3971875,4.26125 C10.1726042,4.60104167 9.86635417,4.7709375 9.4784375,4.7709375 Z M9.4784375,5.639375 C10.1988542,5.639375 10.7705208,5.38854167 11.1934375,4.886875 C11.6178125,4.38666667 11.83,3.71 11.83,2.856875 C11.83,2.00520833 11.6170833,1.32927083 11.19125,0.8290625 C10.7654167,0.3303125 10.1944792,0.0809375 9.4784375,0.0809375 C8.74927083,0.0809375 8.1725,0.3303125 7.748125,0.8290625 C7.32520833,1.32927083 7.11375,2.00520833 7.11375,2.856875 C7.11375,3.714375 7.32666667,4.3925 7.7525,4.89125 C8.17833333,5.39 8.75364583,5.639375 9.4784375,5.639375 Z M2.42375,9.8021875 C2.03145833,9.8021875 1.72229167,9.63229167 1.49625,9.2925 C1.27166667,8.95416667 1.159375,8.48822917 1.159375,7.8946875 C1.159375,7.29385417 1.2709375,6.82427083 1.4940625,6.4859375 C1.7171875,6.1490625 2.02708333,5.980625 2.42375,5.980625 C2.82041667,5.980625 3.13104167,6.1490625 3.355625,6.4859375 C3.58166667,6.82427083 3.6946875,7.29385417 3.6946875,7.8946875 C3.6946875,8.48239583 3.5809375,8.946875 3.3534375,9.288125 C3.1259375,9.63083333 2.81604167,9.8021875 2.42375,9.8021875 Z M8.596875,10.670625 L9.690625,10.670625 L3.3053125,0.0809375 L2.2115625,0.0809375 L8.596875,10.670625 Z M2.42375,10.670625 C3.14416667,10.670625 3.71802083,10.42125 4.1453125,9.9225 C4.5740625,9.42375 4.7884375,8.7478125 4.7884375,7.8946875 C4.7884375,7.03427083 4.57552083,6.35541667 4.1496875,5.858125 C3.72385417,5.36083333 3.14854167,5.1121875 2.42375,5.1121875 C1.69895833,5.1121875 1.12583333,5.3615625 0.704375,5.8603125 C0.282916667,6.36052083 0.0721875,7.03864583 0.0721875,7.8946875 C0.0721875,8.7434375 0.283645833,9.41791667 0.7065625,9.918125 C1.1309375,10.4197917 1.70333333,10.670625 2.42375,10.670625 Z" id="DejaVuSans-25"></path>
                                </g>
                                <g id="DejaVuSans-35-link" transform="translate(13.582734, 0.000000)">
                                    <path d="M0.5315625,10.486875 L5.9521875,10.486875 L5.9521875,9.323125 L1.7959375,9.323125 L1.7959375,6.8228125 C1.99572917,6.89135417 2.19552083,6.94239583 2.3953125,6.9759375 C2.5965625,7.00947917 2.7978125,7.02625 2.9990625,7.02625 C4.13802083,7.02625 5.04,6.71416667 5.705,6.09 C6.37145833,5.46583333 6.7046875,4.62072917 6.7046875,3.5546875 C6.7046875,2.4565625 6.36270833,1.60270833 5.67875,0.993125 C4.99479167,0.385 4.03083333,0.0809375 2.786875,0.0809375 C2.358125,0.0809375 1.92135417,0.117395833 1.4765625,0.1903125 C1.03322917,0.263229167 0.574583333,0.372604167 0.100625,0.5184375 L0.100625,1.9075 C0.510416667,1.684375 0.9340625,1.518125 1.3715625,1.40875 C1.8090625,1.299375 2.27135417,1.2446875 2.7584375,1.2446875 C3.54739583,1.2446875 4.1715625,1.45177083 4.6309375,1.8659375 C5.09177083,2.28010417 5.3221875,2.84302083 5.3221875,3.5546875 C5.3221875,4.26489583 5.09177083,4.82708333 4.6309375,5.24125 C4.1715625,5.656875 3.54739583,5.8646875 2.7584375,5.8646875 C2.38947917,5.8646875 2.02125,5.82385417 1.65375,5.7421875 C1.28770833,5.66052083 0.913645833,5.53291667 0.5315625,5.359375 L0.5315625,10.486875 Z" id="DejaVuSans-35"></path>
                                </g>
                            </g>
                        </g>
                    </g>
                    <g id="ytick_3" transform="translate(119.000000, 104.000000)" fill="#000000">
                        <g id="line2d_9" transform="translate(34.000000, 4.000000)" stroke="#000000" stroke-width="0.8">
                            <g id="m028a79e3e6-link" transform="translate(0.000000, 0.238775)">
                                <path d="M4,1 L0.5,1" id="m028a79e3e6"></path>
                            </g>
                        </g>
                        <g id="text_10">
                            <g id="Group" transform="translate(15.352812, 5.447682) scale(-1, 1) rotate(-180.000000) translate(-15.352812, -5.447682) translate(0.582812, 0.057682)">
                                <g id="DejaVuSans-25-link" fill-rule="nonzero">
                                    <path d="M9.4784375,4.7709375 C9.08177083,4.7709375 8.77041667,4.6025 8.544375,4.265625 C8.31979167,3.92875 8.2075,3.45916667 8.2075,2.856875 C8.2075,2.26479167 8.31979167,1.79885417 8.544375,1.4590625 C8.77041667,1.11927083 9.08177083,0.949375 9.4784375,0.949375 C9.86635417,0.949375 10.1726042,1.11927083 10.3971875,1.4590625 C10.6232292,1.79885417 10.73625,2.26479167 10.73625,2.856875 C10.73625,3.45479167 10.6232292,3.92291667 10.3971875,4.26125 C10.1726042,4.60104167 9.86635417,4.7709375 9.4784375,4.7709375 Z M9.4784375,5.639375 C10.1988542,5.639375 10.7705208,5.38854167 11.1934375,4.886875 C11.6178125,4.38666667 11.83,3.71 11.83,2.856875 C11.83,2.00520833 11.6170833,1.32927083 11.19125,0.8290625 C10.7654167,0.3303125 10.1944792,0.0809375 9.4784375,0.0809375 C8.74927083,0.0809375 8.1725,0.3303125 7.748125,0.8290625 C7.32520833,1.32927083 7.11375,2.00520833 7.11375,2.856875 C7.11375,3.714375 7.32666667,4.3925 7.7525,4.89125 C8.17833333,5.39 8.75364583,5.639375 9.4784375,5.639375 Z M2.42375,9.8021875 C2.03145833,9.8021875 1.72229167,9.63229167 1.49625,9.2925 C1.27166667,8.95416667 1.159375,8.48822917 1.159375,7.8946875 C1.159375,7.29385417 1.2709375,6.82427083 1.4940625,6.4859375 C1.7171875,6.1490625 2.02708333,5.980625 2.42375,5.980625 C2.82041667,5.980625 3.13104167,6.1490625 3.355625,6.4859375 C3.58166667,6.82427083 3.6946875,7.29385417 3.6946875,7.8946875 C3.6946875,8.48239583 3.5809375,8.946875 3.3534375,9.288125 C3.1259375,9.63083333 2.81604167,9.8021875 2.42375,9.8021875 Z M8.596875,10.670625 L9.690625,10.670625 L3.3053125,0.0809375 L2.2115625,0.0809375 L8.596875,10.670625 Z M2.42375,10.670625 C3.14416667,10.670625 3.71802083,10.42125 4.1453125,9.9225 C4.5740625,9.42375 4.7884375,8.7478125 4.7884375,7.8946875 C4.7884375,7.03427083 4.57552083,6.35541667 4.1496875,5.858125 C3.72385417,5.36083333 3.14854167,5.1121875 2.42375,5.1121875 C1.69895833,5.1121875 1.12583333,5.3615625 0.704375,5.8603125 C0.282916667,6.36052083 0.0721875,7.03864583 0.0721875,7.8946875 C0.0721875,8.7434375 0.283645833,9.41791667 0.7065625,9.918125 C1.1309375,10.4197917 1.70333333,10.670625 2.42375,10.670625 Z" id="DejaVuSans-25"></path>
                                </g>
                                <g id="DejaVuSans-31-link" transform="translate(14.002734, 0.280000)">
                                    <polygon id="DejaVuSans-31" points="0.336875 1.1615625 2.5921875 1.1615625 2.5921875 8.9490625 0.1378125 8.456875 0.1378125 9.7146875 2.5790625 10.206875 3.959375 10.206875 3.959375 1.1615625 6.2146875 1.1615625 6.2146875 0 0.336875 0"></polygon>
                                </g>
                                <g id="DejaVuSans-30-link" transform="translate(22.349961, 0.000000)" fill-rule="nonzero">
                                    <path d="M3.609375,9.576875 C2.89916667,9.576875 2.3646875,9.226875 2.0059375,8.526875 C1.64864583,7.82833333 1.47,6.776875 1.47,5.3725 C1.47,3.97395833 1.64864583,2.9246875 2.0059375,2.2246875 C2.3646875,1.5246875 2.89916667,1.1746875 3.609375,1.1746875 C4.32541667,1.1746875 4.86208333,1.5246875 5.219375,2.2246875 C5.578125,2.9246875 5.7575,3.97395833 5.7575,5.3725 C5.7575,6.776875 5.578125,7.82833333 5.219375,8.526875 C4.86208333,9.226875 4.32541667,9.576875 3.609375,9.576875 Z M3.609375,10.670625 C4.75416667,10.670625 5.6284375,10.2178125 6.2321875,9.3121875 C6.8359375,8.40802083 7.1378125,7.09479167 7.1378125,5.3725 C7.1378125,3.65458333 6.8359375,2.3428125 6.2321875,1.4371875 C5.6284375,0.533020833 4.75416667,0.0809375 3.609375,0.0809375 C2.46604167,0.0809375 1.5925,0.533020833 0.98875,1.4371875 C0.385,2.3428125 0.083125,3.65458333 0.083125,5.3725 C0.083125,7.09479167 0.385,8.40802083 0.98875,9.3121875 C1.5925,10.2178125 2.46604167,10.670625 3.609375,10.670625 Z" id="DejaVuSans-30"></path>
                                </g>
                            </g>
                        </g>
                    </g>
                    <g id="ytick_4" transform="translate(119.000000, 45.000000)" fill="#000000">
                        <g id="line2d_10" transform="translate(34.000000, 4.000000)" stroke="#000000" stroke-width="0.8">
                            <g id="m028a79e3e6-link" transform="translate(0.000000, 0.799981)">
                                <path d="M4,1 L0.5,1" id="m028a79e3e6"></path>
                            </g>
                        </g>
                        <g id="text_11">
                            <g id="Group" transform="translate(15.212812, 6.008888) scale(-1, 1) rotate(-180.000000) translate(-15.212812, -6.008888) translate(0.582812, 0.618888)">
                                <g id="DejaVuSans-25-link" fill-rule="nonzero">
                                    <path d="M9.4784375,4.7709375 C9.08177083,4.7709375 8.77041667,4.6025 8.544375,4.265625 C8.31979167,3.92875 8.2075,3.45916667 8.2075,2.856875 C8.2075,2.26479167 8.31979167,1.79885417 8.544375,1.4590625 C8.77041667,1.11927083 9.08177083,0.949375 9.4784375,0.949375 C9.86635417,0.949375 10.1726042,1.11927083 10.3971875,1.4590625 C10.6232292,1.79885417 10.73625,2.26479167 10.73625,2.856875 C10.73625,3.45479167 10.6232292,3.92291667 10.3971875,4.26125 C10.1726042,4.60104167 9.86635417,4.7709375 9.4784375,4.7709375 Z M9.4784375,5.639375 C10.1988542,5.639375 10.7705208,5.38854167 11.1934375,4.886875 C11.6178125,4.38666667 11.83,3.71 11.83,2.856875 C11.83,2.00520833 11.6170833,1.32927083 11.19125,0.8290625 C10.7654167,0.3303125 10.1944792,0.0809375 9.4784375,0.0809375 C8.74927083,0.0809375 8.1725,0.3303125 7.748125,0.8290625 C7.32520833,1.32927083 7.11375,2.00520833 7.11375,2.856875 C7.11375,3.714375 7.32666667,4.3925 7.7525,4.89125 C8.17833333,5.39 8.75364583,5.639375 9.4784375,5.639375 Z M2.42375,9.8021875 C2.03145833,9.8021875 1.72229167,9.63229167 1.49625,9.2925 C1.27166667,8.95416667 1.159375,8.48822917 1.159375,7.8946875 C1.159375,7.29385417 1.2709375,6.82427083 1.4940625,6.4859375 C1.7171875,6.1490625 2.02708333,5.980625 2.42375,5.980625 C2.82041667,5.980625 3.13104167,6.1490625 3.355625,6.4859375 C3.58166667,6.82427083 3.6946875,7.29385417 3.6946875,7.8946875 C3.6946875,8.48239583 3.5809375,8.946875 3.3534375,9.288125 C3.1259375,9.63083333 2.81604167,9.8021875 2.42375,9.8021875 Z M8.596875,10.670625 L9.690625,10.670625 L3.3053125,0.0809375 L2.2115625,0.0809375 L8.596875,10.670625 Z M2.42375,10.670625 C3.14416667,10.670625 3.71802083,10.42125 4.1453125,9.9225 C4.5740625,9.42375 4.7884375,8.7478125 4.7884375,7.8946875 C4.7884375,7.03427083 4.57552083,6.35541667 4.1496875,5.858125 C3.72385417,5.36083333 3.14854167,5.1121875 2.42375,5.1121875 C1.69895833,5.1121875 1.12583333,5.3615625 0.704375,5.8603125 C0.282916667,6.36052083 0.0721875,7.03864583 0.0721875,7.8946875 C0.0721875,8.7434375 0.283645833,9.41791667 0.7065625,9.918125 C1.1309375,10.4197917 1.70333333,10.670625 2.42375,10.670625 Z" id="DejaVuSans-25"></path>
                                </g>
                                <g id="DejaVuSans-31-link" transform="translate(14.002734, 0.280000)">
                                    <polygon id="DejaVuSans-31" points="0.336875 1.1615625 2.5921875 1.1615625 2.5921875 8.9490625 0.1378125 8.456875 0.1378125 9.7146875 2.5790625 10.206875 3.959375 10.206875 3.959375 1.1615625 6.2146875 1.1615625 6.2146875 0 0.336875 0"></polygon>
                                </g>
                                <g id="DejaVuSans-35-link" transform="translate(22.489961, 0.000000)">
                                    <path d="M0.5315625,10.486875 L5.9521875,10.486875 L5.9521875,9.323125 L1.7959375,9.323125 L1.7959375,6.8228125 C1.99572917,6.89135417 2.19552083,6.94239583 2.3953125,6.9759375 C2.5965625,7.00947917 2.7978125,7.02625 2.9990625,7.02625 C4.13802083,7.02625 5.04,6.71416667 5.705,6.09 C6.37145833,5.46583333 6.7046875,4.62072917 6.7046875,3.5546875 C6.7046875,2.4565625 6.36270833,1.60270833 5.67875,0.993125 C4.99479167,0.385 4.03083333,0.0809375 2.786875,0.0809375 C2.358125,0.0809375 1.92135417,0.117395833 1.4765625,0.1903125 C1.03322917,0.263229167 0.574583333,0.372604167 0.100625,0.5184375 L0.100625,1.9075 C0.510416667,1.684375 0.9340625,1.518125 1.3715625,1.40875 C1.8090625,1.299375 2.27135417,1.2446875 2.7584375,1.2446875 C3.54739583,1.2446875 4.1715625,1.45177083 4.6309375,1.8659375 C5.09177083,2.28010417 5.3221875,2.84302083 5.3221875,3.5546875 C5.3221875,4.26489583 5.09177083,4.82708333 4.6309375,5.24125 C4.1715625,5.656875 3.54739583,5.8646875 2.7584375,5.8646875 C2.38947917,5.8646875 2.02125,5.82385417 1.65375,5.7421875 C1.28770833,5.66052083 0.913645833,5.53291667 0.5315625,5.359375 L0.5315625,10.486875 Z" id="DejaVuSans-35"></path>
                                </g>
                            </g>
                        </g>
                    </g>
                    <g id="text_12">
                        <g id="Group" transform="translate(55.527500, 118.108750) scale(-1, 1) rotate(-90.000000) translate(-55.527500, -118.108750) translate(-61.732500, 62.888750)">
                            <g id="DejaVuSans-43-link" fill="#000000">
                                <path d="M13.069375,15.241875 L13.069375,12.9559375 C12.3383333,13.6365625 11.5591667,14.1441667 10.731875,14.47875 C9.90458333,14.815625 9.02572917,14.9840625 8.0953125,14.9840625 C6.26197917,14.9840625 4.85833333,14.42375 3.884375,13.303125 C2.91041667,12.1825 2.4234375,10.5622917 2.4234375,8.4425 C2.4234375,6.32958333 2.91041667,4.7128125 3.884375,3.5921875 C4.85833333,2.4715625 6.26197917,1.91125 8.0953125,1.91125 C9.02572917,1.91125 9.90458333,2.0796875 10.731875,2.4165625 C11.5591667,2.7534375 12.3383333,3.2621875 13.069375,3.9428125 L13.069375,1.6740625 C12.3108333,1.1584375 11.5064583,0.771145833 10.65625,0.5121875 C9.80833333,0.255520833 8.91229167,0.1271875 7.968125,0.1271875 C5.53895833,0.1271875 3.62541667,0.8696875 2.2275,2.3546875 C0.831875,3.84197917 0.1340625,5.87125 0.1340625,8.4425 C0.1340625,11.020625 0.831875,13.0521875 2.2275,14.5371875 C3.62541667,16.0244792 5.53895833,16.768125 7.968125,16.768125 C8.92604167,16.768125 9.82895833,16.6409375 10.676875,16.3865625 C11.5270833,16.1321875 12.3245833,15.750625 13.069375,15.241875 Z" id="DejaVuSans-43"></path>
                            </g>
                            <g id="DejaVuSans-75-link" transform="translate(16.021328, 0.000000)" fill="#000000">
                                <path d="M0.11,5.1871875 L0.11,12.47125 L2.0865625,12.47125 L2.0865625,5.2628125 C2.0865625,4.12385417 2.30770833,3.2690625 2.75,2.6984375 C3.19458333,2.13010417 3.86145833,1.8459375 4.750625,1.8459375 C5.81625,1.8459375 6.6584375,2.18625 7.2771875,2.866875 C7.89822917,3.5475 8.20875,4.475625 8.20875,5.65125 L8.20875,12.47125 L10.1853125,12.47125 L10.1853125,0.44 L8.20875,0.44 L8.20875,2.289375 C7.72979167,1.55833333 7.17291667,1.01520833 6.538125,0.66 C5.905625,0.304791667 5.17,0.1271875 4.33125,0.1271875 C2.949375,0.1271875 1.89979167,0.556875 1.1825,1.41625 C0.4675,2.275625 0.11,3.53260417 0.11,5.1871875 Z" id="DejaVuSans-75"></path>
                            </g>
                            <g id="DejaVuSans-6d-link" transform="translate(30.184688, 0.440000)" fill="#000000">
                                <path d="M9.46,9.72125 C9.955,10.6104167 10.54625,11.2658333 11.23375,11.6875 C11.92125,12.1091667 12.7302083,12.32 13.660625,12.32 C14.9141667,12.32 15.88125,11.8811458 16.561875,11.0034375 C17.2425,10.1280208 17.5828125,8.88135417 17.5828125,7.2634375 L17.5828125,0 L15.5959375,0 L15.5959375,7.198125 C15.5959375,8.35083333 15.3908333,9.205625 14.980625,9.7625 C14.5727083,10.3216667 13.9505208,10.60125 13.1140625,10.60125 C12.0896875,10.60125 11.2795833,10.2609375 10.68375,9.5803125 C10.0902083,8.90197917 9.7934375,7.975 9.7934375,6.799375 L9.7934375,0 L7.8065625,0 L7.8065625,7.198125 C7.8065625,8.35770833 7.60260417,9.21479167 7.1946875,9.769375 C6.78677083,10.3239583 6.1565625,10.60125 5.3040625,10.60125 C4.2934375,10.60125 3.49020833,10.2597917 2.894375,9.576875 C2.30083333,8.89395833 2.0040625,7.968125 2.0040625,6.799375 L2.0040625,0 L0.0171875,0 L0.0171875,12.03125 L2.0040625,12.03125 L2.0040625,10.16125 C2.45552083,10.8991667 2.99635417,11.4434375 3.6265625,11.7940625 C4.25677083,12.1446875 5.005,12.32 5.87125,12.32 C6.74666667,12.32 7.4903125,12.0977083 8.1021875,11.653125 C8.7140625,11.2108333 9.16666667,10.566875 9.46,9.72125 Z" id="DejaVuSans-6d"></path>
                            </g>
                            <g id="DejaVuSans-75-link" transform="translate(51.395351, 0.000000)" fill="#000000">
                                <path d="M0.11,5.1871875 L0.11,12.47125 L2.0865625,12.47125 L2.0865625,5.2628125 C2.0865625,4.12385417 2.30770833,3.2690625 2.75,2.6984375 C3.19458333,2.13010417 3.86145833,1.8459375 4.750625,1.8459375 C5.81625,1.8459375 6.6584375,2.18625 7.2771875,2.866875 C7.89822917,3.5475 8.20875,4.475625 8.20875,5.65125 L8.20875,12.47125 L10.1853125,12.47125 L10.1853125,0.44 L8.20875,0.44 L8.20875,2.289375 C7.72979167,1.55833333 7.17291667,1.01520833 6.538125,0.66 C5.905625,0.304791667 5.17,0.1271875 4.33125,0.1271875 C2.949375,0.1271875 1.89979167,0.556875 1.1825,1.41625 C0.4675,2.275625 0.11,3.53260417 0.11,5.1871875 Z" id="DejaVuSans-75"></path>
                            </g>
                            <g id="DejaVuSans-6c-link" transform="translate(65.558711, 0.440000)" fill="#000000">
                                <polygon id="DejaVuSans-6c" points="0.0928125 16.7165625 2.069375 16.7165625 2.069375 0 0.0928125 0"></polygon>
                            </g>
                            <g id="DejaVuSans-61-link" transform="translate(71.011016, 0.000000)" fill="#000000" fill-rule="nonzero">
                                <path d="M6.221875,6.4865625 C4.62458333,6.4865625 3.51770833,6.304375 2.90125,5.94 C2.28479167,5.575625 1.9765625,4.95229167 1.9765625,4.07 C1.9765625,3.36875 2.20802083,2.811875 2.6709375,2.399375 C3.13385417,1.98916667 3.76177083,1.7840625 4.5546875,1.7840625 C5.65239583,1.7840625 6.53239583,2.1725 7.1946875,2.949375 C7.85697917,3.72625 8.188125,4.75864583 8.188125,6.0465625 L8.188125,6.4865625 L6.221875,6.4865625 Z M10.1646875,7.3046875 L10.1646875,0.44 L8.188125,0.44 L8.188125,2.2653125 C7.73666667,1.5365625 7.1740625,0.998020833 6.5003125,0.6496875 C5.8265625,0.301354167 5.00270833,0.1271875 4.02875,0.1271875 C2.798125,0.1271875 1.8184375,0.473229167 1.0896875,1.1653125 C0.363229167,1.85739583 0,2.78322917 0,3.9428125 C0,5.29489583 0.452604167,6.3146875 1.3578125,7.0021875 C2.2653125,7.6896875 3.61739583,8.0334375 5.4140625,8.0334375 L8.188125,8.0334375 L8.188125,8.229375 C8.188125,9.13916667 7.8890625,9.84270833 7.2909375,10.34 C6.6928125,10.8372917 5.85291667,11.0859375 4.77125,11.0859375 C4.08375,11.0859375 3.4134375,11.0034375 2.7603125,10.8384375 C2.10947917,10.6734375 1.48385417,10.4259375 0.8834375,10.0959375 L0.8834375,11.9246875 C1.6053125,12.2042708 2.3065625,12.4128125 2.9871875,12.5503125 C3.6678125,12.6901042 4.33010417,12.76 4.9740625,12.76 C6.71572917,12.76 8.01625,12.3085417 8.875625,11.405625 C9.735,10.505 10.1646875,9.13802083 10.1646875,7.3046875 Z" id="DejaVuSans-61"></path>
                            </g>
                            <g id="DejaVuSans-74-link" transform="translate(83.612461, 0.440000)" fill="#000000">
                                <path d="M3.58875,15.448125 L3.58875,12.03125 L7.65875,12.03125 L7.65875,10.4946875 L3.58875,10.4946875 L3.58875,3.9634375 C3.58875,2.98260417 3.7228125,2.35239583 3.9909375,2.0728125 C4.2590625,1.79322917 4.805625,1.6534375 5.630625,1.6534375 L7.65875,1.6534375 L7.65875,0 L5.630625,0 C4.104375,0 3.05135417,0.284166667 2.4715625,0.8525 C1.89177083,1.423125 1.601875,2.46010417 1.601875,3.9634375 L1.601875,10.4946875 L0.15125,10.4946875 L0.15125,12.03125 L1.601875,12.03125 L1.601875,15.448125 L3.58875,15.448125 Z" id="DejaVuSans-74"></path>
                            </g>
                            <g id="DejaVuSans-69-link" transform="translate(93.778437, 0.440000)" fill="#000000" fill-rule="nonzero">
                                <path d="M0.0928125,12.03125 L2.069375,12.03125 L2.069375,0 L0.0928125,0 L0.0928125,12.03125 Z M0.0928125,16.7165625 L2.069375,16.7165625 L2.069375,14.210625 L0.0928125,14.210625 L0.0928125,16.7165625 Z" id="DejaVuSans-69"></path>
                            </g>
                            <g id="DejaVuSans-76-link" transform="translate(98.350742, 0.440000)" fill="#000000">
                                <polygon id="DejaVuSans-76" points="0.2165625 12.03125 2.31 12.03125 6.070625 1.9353125 9.83125 12.03125 11.9246875 12.03125 7.41125 0 4.7265625 0"></polygon>
                            </g>
                            <g id="DejaVuSans-65-link" transform="translate(112.030274, 0.000000)" fill="#000000" fill-rule="nonzero">
                                <path d="M11.2646875,6.950625 L11.2646875,5.9846875 L2.1759375,5.9846875 C2.26302083,4.6234375 2.67322917,3.58645833 3.4065625,2.87375 C4.13989583,2.16104167 5.16197917,1.8046875 6.4728125,1.8046875 C7.23135417,1.8046875 7.96697917,1.8975 8.6796875,2.083125 C9.39239583,2.26875 10.1005208,2.54833333 10.8040625,2.921875 L10.8040625,1.051875 C10.0936458,0.751666667 9.36604167,0.5225 8.62125,0.364375 C7.87645833,0.20625 7.12135417,0.1271875 6.3559375,0.1271875 C4.43552083,0.1271875 2.915,0.685208333 1.794375,1.80125 C0.67375,2.91958333 0.1134375,4.43208333 0.1134375,6.33875 C0.1134375,8.30729167 0.645104167,9.8690625 1.7084375,11.0240625 C2.77177083,12.1813542 4.20635417,12.76 6.0121875,12.76 C7.63010417,12.76 8.91,12.2386458 9.851875,11.1959375 C10.79375,10.1555208 11.2646875,8.74041667 11.2646875,6.950625 Z M9.288125,7.5315625 C9.274375,8.6109375 8.971875,9.47260417 8.380625,10.1165625 C7.789375,10.7628125 7.00677083,11.0859375 6.0328125,11.0859375 C4.93052083,11.0859375 4.04822917,10.7742708 3.3859375,10.1509375 C2.72364583,9.52760417 2.34208333,8.64989583 2.24125,7.5178125 L9.288125,7.5315625 Z" id="DejaVuSans-65"></path>
                            </g>
                            <g id="DejaVuSans-20-link" transform="translate(124.465430, 0.440000)"></g>
                            <g id="DejaVuSans-52-link" transform="translate(133.438594, 0.440000)" fill="#000000" fill-rule="nonzero">
                                <path d="M7.7859375,7.52125 C8.25114583,7.363125 8.70375,7.02625 9.14375,6.510625 C9.58375,5.995 10.0260417,5.28572917 10.470625,4.3828125 L12.6740625,0 L10.34,0 L8.29125,4.1146875 C7.75958333,5.18947917 7.24510417,5.9021875 6.7478125,6.2528125 C6.25052083,6.6034375 5.5721875,6.77875 4.7128125,6.77875 L2.3478125,6.77875 L2.3478125,0 L0.17875,0 L0.17875,16.039375 L5.0771875,16.039375 C6.91052083,16.039375 8.27864583,15.6555208 9.1815625,14.8878125 C10.0844792,14.1223958 10.5359375,12.96625 10.5359375,11.419375 C10.5359375,10.40875 10.3010417,9.57 9.83125,8.903125 C9.36145833,8.23854167 8.6796875,7.77791667 7.7859375,7.52125 Z M2.3478125,14.2553125 L2.3478125,8.5628125 L5.0771875,8.5628125 C6.1221875,8.5628125 6.91166667,8.80458333 7.445625,9.288125 C7.97958333,9.77166667 8.2465625,10.4820833 8.2465625,11.419375 C8.2465625,12.3566667 7.97958333,13.0636458 7.445625,13.5403125 C6.91166667,14.0169792 6.1221875,14.2553125 5.0771875,14.2553125 L2.3478125,14.2553125 Z" id="DejaVuSans-52"></path>
                            </g>
                            <g id="DejaVuSans-65-link" transform="translate(147.830976, 0.000000)" fill="#000000" fill-rule="nonzero">
                                <path d="M11.2646875,6.950625 L11.2646875,5.9846875 L2.1759375,5.9846875 C2.26302083,4.6234375 2.67322917,3.58645833 3.4065625,2.87375 C4.13989583,2.16104167 5.16197917,1.8046875 6.4728125,1.8046875 C7.23135417,1.8046875 7.96697917,1.8975 8.6796875,2.083125 C9.39239583,2.26875 10.1005208,2.54833333 10.8040625,2.921875 L10.8040625,1.051875 C10.0936458,0.751666667 9.36604167,0.5225 8.62125,0.364375 C7.87645833,0.20625 7.12135417,0.1271875 6.3559375,0.1271875 C4.43552083,0.1271875 2.915,0.685208333 1.794375,1.80125 C0.67375,2.91958333 0.1134375,4.43208333 0.1134375,6.33875 C0.1134375,8.30729167 0.645104167,9.8690625 1.7084375,11.0240625 C2.77177083,12.1813542 4.20635417,12.76 6.0121875,12.76 C7.63010417,12.76 8.91,12.2386458 9.851875,11.1959375 C10.79375,10.1555208 11.2646875,8.74041667 11.2646875,6.950625 Z M9.288125,7.5315625 C9.274375,8.6109375 8.971875,9.47260417 8.380625,10.1165625 C7.789375,10.7628125 7.00677083,11.0859375 6.0328125,11.0859375 C4.93052083,11.0859375 4.04822917,10.7742708 3.3859375,10.1509375 C2.72364583,9.52760417 2.34208333,8.64989583 2.24125,7.5178125 L9.288125,7.5315625 Z" id="DejaVuSans-65"></path>
                            </g>
                            <g id="DejaVuSans-74-link" transform="translate(160.706133, 0.440000)" fill="#000000">
                                <path d="M3.58875,15.448125 L3.58875,12.03125 L7.65875,12.03125 L7.65875,10.4946875 L3.58875,10.4946875 L3.58875,3.9634375 C3.58875,2.98260417 3.7228125,2.35239583 3.9909375,2.0728125 C4.2590625,1.79322917 4.805625,1.6534375 5.630625,1.6534375 L7.65875,1.6534375 L7.65875,0 L5.630625,0 C4.104375,0 3.05135417,0.284166667 2.4715625,0.8525 C1.89177083,1.423125 1.601875,2.46010417 1.601875,3.9634375 L1.601875,10.4946875 L0.15125,10.4946875 L0.15125,12.03125 L1.601875,12.03125 L1.601875,15.448125 L3.58875,15.448125 Z" id="DejaVuSans-74"></path>
                            </g>
                            <g id="DejaVuSans-75-link" transform="translate(170.652109, 0.000000)" fill="#000000">
                                <path d="M0.11,5.1871875 L0.11,12.47125 L2.0865625,12.47125 L2.0865625,5.2628125 C2.0865625,4.12385417 2.30770833,3.2690625 2.75,2.6984375 C3.19458333,2.13010417 3.86145833,1.8459375 4.750625,1.8459375 C5.81625,1.8459375 6.6584375,2.18625 7.2771875,2.866875 C7.89822917,3.5475 8.20875,4.475625 8.20875,5.65125 L8.20875,12.47125 L10.1853125,12.47125 L10.1853125,0.44 L8.20875,0.44 L8.20875,2.289375 C7.72979167,1.55833333 7.17291667,1.01520833 6.538125,0.66 C5.905625,0.304791667 5.17,0.1271875 4.33125,0.1271875 C2.949375,0.1271875 1.89979167,0.556875 1.1825,1.41625 C0.4675,2.275625 0.11,3.53260417 0.11,5.1871875 Z" id="DejaVuSans-75"></path>
                            </g>
                            <g id="DejaVuSans-72-link" transform="translate(184.815469, 0.440000)" fill="#000000">
                                <path d="M7.0640625,10.1853125 C6.84177083,10.3136458 6.6,10.4076042 6.33875,10.4671875 C6.0775,10.5290625 5.78989583,10.56 5.4759375,10.56 C4.35760417,10.56 3.499375,10.1967708 2.90125,9.4703125 C2.303125,8.74385417 2.0040625,7.7 2.0040625,6.33875 L2.0040625,0 L0.0171875,0 L0.0171875,12.03125 L2.0040625,12.03125 L2.0040625,10.16125 C2.42114583,10.8922917 2.96197917,11.4342708 3.6265625,11.7871875 C4.2934375,12.1423958 5.10354167,12.32 6.056875,12.32 C6.19208333,12.32 6.3421875,12.3108333 6.5071875,12.2925 C6.6721875,12.2764583 6.854375,12.2501042 7.05375,12.2134375 L7.0640625,10.1853125 Z" id="DejaVuSans-72"></path>
                            </g>
                            <g id="DejaVuSans-6e-link" transform="translate(193.856953, 0.440000)" fill="#000000">
                                <path d="M10.0959375,7.2634375 L10.0959375,0 L8.119375,0 L8.119375,7.198125 C8.119375,8.33708333 7.89708333,9.1884375 7.4525,9.7521875 C7.00791667,10.3182292 6.3421875,10.60125 5.4553125,10.60125 C4.38739583,10.60125 3.54520833,10.2609375 2.92875,9.5803125 C2.31229167,8.90197917 2.0040625,7.975 2.0040625,6.799375 L2.0040625,0 L0.0171875,0 L0.0171875,12.03125 L2.0040625,12.03125 L2.0040625,10.16125 C2.4784375,10.8854167 3.0353125,11.42625 3.6746875,11.78375 C4.31635417,12.14125 5.0565625,12.32 5.8953125,12.32 C7.2771875,12.32 8.3221875,11.8926042 9.0303125,11.0378125 C9.74072917,10.1830208 10.0959375,8.92489583 10.0959375,7.2634375 Z" id="DejaVuSans-6e"></path>
                            </g>
                            <g id="DejaVuSans-73-link" transform="translate(206.920313, 0.000000)" fill="#000000">
                                <path d="M8.641875,12.1171875 L8.641875,10.2471875 C8.085,10.5336458 7.50520833,10.7479167 6.9025,10.89 C6.30208333,11.034375 5.67875,11.1065625 5.0325,11.1065625 C4.05166667,11.1065625 3.31604167,10.9564583 2.825625,10.65625 C2.33520833,10.3560417 2.09,9.90458333 2.09,9.301875 C2.09,8.84354167 2.2653125,8.48375 2.6159375,8.2225 C2.9665625,7.96125 3.67239583,7.71260417 4.7334375,7.4765625 L5.410625,7.3253125 C6.813125,7.02510417 7.81,6.60114583 8.40125,6.0534375 C8.9925,5.50572917 9.288125,4.74145833 9.288125,3.760625 C9.288125,2.64229167 8.84583333,1.7565625 7.96125,1.1034375 C7.07666667,0.452604167 5.8609375,0.1271875 4.3140625,0.1271875 C3.67010417,0.1271875 2.99864583,0.190208333 2.2996875,0.31625 C1.60072917,0.442291667 0.865104167,0.630208333 0.0928125,0.88 L0.0928125,2.921875 C0.823854167,2.54145833 1.5434375,2.25614583 2.2515625,2.0659375 C2.9596875,1.87802083 3.66208333,1.7840625 4.35875,1.7840625 C5.28916667,1.7840625 6.00416667,1.94333333 6.50375,2.261875 C7.005625,2.58041667 7.2565625,3.02958333 7.2565625,3.609375 C7.2565625,4.145625 7.07552083,4.55697917 6.7134375,4.8434375 C6.35364583,5.12989583 5.56072917,5.40604167 4.3346875,5.671875 L3.6471875,5.8334375 C2.4234375,6.09010417 1.53885417,6.48541667 0.9934375,7.019375 C0.4503125,7.55333333 0.17875,8.28552083 0.17875,9.2159375 C0.17875,10.3480208 0.579791667,11.2211458 1.381875,11.8353125 C2.18395833,12.4517708 3.32291667,12.76 4.79875,12.76 C5.5275,12.76 6.21385417,12.7061458 6.8578125,12.5984375 C7.5040625,12.4930208 8.09875,12.3326042 8.641875,12.1171875 Z" id="DejaVuSans-73"></path>
                            </g>
                        </g>
                    </g>
                </g>
                <g id="line2d_11" transform="translate(157.000000, 28.000000)" stroke="#1F77B4" stroke-linecap="square" stroke-width="5">
                    <polyline id="Path" points="0 198.116364 30.413639 177.919916 60.827277 150.465371 91.324241 131.846771 121.73788 93.031724 152.151518 73.781985 182.565157 63.052623 213.06212 47.652832 243.475759 0.443636 273.889398 7.575507 304.303036 9.595152 334.8 1.201003"></polyline>
                </g>
                <g id="patch_3" transform="translate(156.000000, 18.000000)" stroke="#000000" stroke-linecap="square" stroke-width="0.8">
                    <path d="M1,218 L1,0.56" id="Path"></path>
                </g>
                <g id="patch_4" transform="translate(491.000000, 18.000000)" stroke="#000000" stroke-linecap="square" stroke-width="0.8">
                    <path d="M0.8,218 L0.8,0.56" id="Path"></path>
                </g>
                <g id="patch_5" transform="translate(157.000000, 235.000000)" stroke="#000000" stroke-linecap="square" stroke-width="0.8">
                    <path d="M0,1 L334.8,1" id="Path"></path>
                </g>
                <g id="patch_6" transform="translate(157.000000, 18.000000)" stroke="#000000" stroke-linecap="square" stroke-width="0.8">
                    <path d="M0,0.56 L334.8,0.56" id="Path"></path>
                </g>
            </g>
        </g>
    </g>
</svg>